#N canvas 89 -9 1822 1026 12;
#X text 314 312 creation arguments are OSC address;
#X text 320 284 set message to change OSC address;
#X floatatom 145 261 5 0 0 0 - - -;
#N canvas 89 -9 1822 1026 oscReceive 0;
#X obj 55 184 netreceive -u -b;
#X msg 78 143 listen 0;
#X text 152 143 stop listening;
#X text 64 58 packets from network;
#X text 173 177 UDP packets \, binary output, f 13;
#X obj 45 314 print;
#X obj 45 272 oscparse;
#X text 150 114 listen on port 8000;
#X obj 177 269 oscparse;
#X obj 177 293 list trim;
#X floatatom 73 431 5 0 0 0 - - -;
#X text 241 267 Parse the OSC message;
#X obj 177 319 route unity;
#X msg 66 115 listen 8000;
#X obj 66 84 loadbang;
#X obj 72 408 route aurastate;
#X obj 73 458 s osc_aurastate;
#X obj 238 416 route blueFireSignal;
#X floatatom 237 446 5 0 0 0 - - -;
#X obj 234 506 s osc_bluefire;
#X floatatom 604 472 5 0 0 0 - - -;
#X obj 599 511 s osc_firestate;
#X obj 608 415 route fireState;
#X floatatom 394 447 5 0 0 0 - - -;
#X obj 395 417 route yellowFireSignal;
#X obj 391 507 s osc_yellowfire;
#X floatatom 775 436 5 0 0 0 - - -;
#X obj 774 413 route blueAura;
#X floatatom 939 437 5 0 0 0 - - -;
#X obj 938 414 route yellowAura;
#X obj 775 463 s osc_blueaura;
#X obj 939 464 s osc_yellowaura;
#X floatatom 1087 439 5 0 0 0 - - -;
#X obj 1086 416 route rocket;
#X obj 1087 466 s osc_rocket;
#X floatatom 1235 447 5 0 0 0 - - -;
#X obj 1234 424 route norocket;
#X obj 1235 474 s osc_norocket;
#X obj 1379 427 route start;
#X floatatom 1383 460 5 0 0 0 - - -;
#X obj 1383 487 s osc_start;
#X connect 0 0 6 0;
#X connect 0 0 8 0;
#X connect 1 0 0 0;
#X connect 6 0 5 0;
#X connect 8 0 9 0;
#X connect 9 0 12 0;
#X connect 10 0 16 0;
#X connect 12 0 15 0;
#X connect 12 0 17 0;
#X connect 12 0 22 0;
#X connect 12 0 24 0;
#X connect 12 0 27 0;
#X connect 12 0 29 0;
#X connect 12 0 33 0;
#X connect 12 0 36 0;
#X connect 12 0 38 0;
#X connect 13 0 0 0;
#X connect 14 0 13 0;
#X connect 15 0 10 0;
#X connect 17 0 18 0;
#X connect 18 0 19 0;
#X connect 20 0 21 0;
#X connect 22 0 20 0;
#X connect 23 0 25 0;
#X connect 24 0 23 0;
#X connect 26 0 30 0;
#X connect 27 0 26 0;
#X connect 28 0 31 0;
#X connect 29 0 28 0;
#X connect 32 0 34 0;
#X connect 33 0 32 0;
#X connect 35 0 37 0;
#X connect 36 0 35 0;
#X connect 38 0 39 0;
#X connect 39 0 40 0;
#X restore 47 142 pd oscReceive;
#X obj 146 345 oscformat PD message;
#X msg 178 306 set PD message;
#N canvas 727 97 450 300 oscSend 0;
#X msg 158 207 disconnect;
#X obj 61 253 netsend -u -b;
#X obj 59 55 list prepend send;
#X obj 59 80 list trim;
#X obj 59 29 r oscOut;
#X text 301 163 send to port 8001;
#X obj 147 108 loadbang;
#X msg 147 148 connect localhost 5555;
#X msg 150 175 connect 127.0.0.1 5555;
#X connect 0 0 1 0;
#X connect 2 0 3 0;
#X connect 3 0 1 0;
#X connect 4 0 2 0;
#X connect 6 0 7 0;
#X connect 7 0 1 0;
#X connect 8 0 1 0;
#X restore 47 118 pd oscSend;
#X obj 146 380 s oscOut;
#X obj 47 36 tgl 15 0 empty empty empty 17 7 0 10 -262144 -1 -1 0 1
;
#X msg 47 61 \; pd dsp \$1;
#X obj 1040 93 tgl 15 0 empty empty empty 17 7 0 10 -262144 -1 -1 0
1;
#X obj 1040 61 r osc_aurastate;
#X obj 1347 688 s oscOut;
#X msg 1365 614 set metroSignal;
#X obj 1347 653 oscformat metroSignal;
#X obj 1286 599 print;
#N canvas 89 -9 1822 1026 beatGenerator 0;
#X obj 649 104 f;
#X obj 803 138 + 1;
#X floatatom 539 62 5 0 0 0 - - -;
#X obj 579 150 + 1;
#X floatatom 718 231 5 0 0 0 - - -;
#X obj 779 179 mod 32;
#X obj 792 72 metro 125;
#X obj 790 11 inlet;
#X obj 735 279 outlet;
#X connect 0 0 1 0;
#X connect 0 0 2 0;
#X connect 1 0 5 0;
#X connect 2 0 3 0;
#X connect 3 0 4 0;
#X connect 4 0 8 0;
#X connect 5 0 0 1;
#X connect 6 0 0 0;
#X connect 7 0 6 0;
#X restore 1272 170 pd beatGenerator;
#X obj 1346 551 pack 0 0 0;
#X obj 1266 -14 tgl 15 0 empty empty empty 17 7 0 10 -262144 -1 -1
0 1;
#X obj 1255 -62 r osc_start;
#X obj 174 8 cnv 15 300 200 empty empty empty 20 12 0 14 -232576 -66577
0;
#N canvas 89 -9 1822 1026 rocket 0;
#X obj 1259 464 phasor~;
#X obj 1275 592 *~;
#X obj 1250 282 vline~;
#X obj 1249 153 bng 15 250 50 0 empty empty empty 17 7 0 10 -262144
-1 -1;
#X obj 1398 464 phasor~;
#X obj 1392 276 vline~;
#X msg 1250 233 50 0 \, 85 1000;
#X msg 1393 236 48 0 \, 84.75 1000;
#X obj 1545 460 phasor~;
#X obj 1539 272 vline~;
#X msg 1540 232 46 0 \, 85 1000;
#X obj 1675 469 phasor~;
#X obj 1669 281 vline~;
#X msg 1670 241 44 0 \, 85 1000;
#X obj 1074 286 vline~;
#X obj 765 152 noise~;
#X obj 701 394 vcf~ 1;
#X obj 801 389 vcf~ 1;
#X obj 601 419 vcf~ 1;
#X obj 692 151 line~;
#X msg 692 113 2000;
#X obj 1029 549 *~;
#X obj 867 379 vcf~ 1;
#X obj 1108 485 vline~;
#X msg 1104 408 0.4 0 \, 0.18 1000;
#X msg 1084 230 0.25 0 \, 0.1 2000;
#X obj 1261 651 *~ 0.5;
#X obj 1079 652 *~ 0.5;
#X obj 1184 729 +~;
#X obj 1191 791 *~;
#X obj 1184 839 outlet~;
#X obj 1307 769 vline~;
#X msg 1352 729 1 100;
#X msg 1450 741 0 1000;
#X obj 1350 655 r osc_rocket;
#X obj 1463 663 r osc_norocket;
#X obj 1250 65 r osc_rocket;
#X text 1045 147 Trigger acceleration sound;
#X text 490 260 Background noise to make it sound like the rocket is
flying;
#X connect 0 0 1 1;
#X connect 1 0 26 0;
#X connect 2 0 0 0;
#X connect 3 0 6 0;
#X connect 3 0 7 0;
#X connect 3 0 10 0;
#X connect 3 0 13 0;
#X connect 3 0 25 0;
#X connect 3 0 24 0;
#X connect 4 0 1 1;
#X connect 5 0 4 0;
#X connect 6 0 2 0;
#X connect 6 0 2 0;
#X connect 7 0 5 0;
#X connect 7 0 5 0;
#X connect 8 0 1 1;
#X connect 9 0 8 0;
#X connect 10 0 9 0;
#X connect 10 0 9 0;
#X connect 11 0 1 1;
#X connect 12 0 11 0;
#X connect 13 0 12 0;
#X connect 13 0 12 0;
#X connect 14 0 21 1;
#X connect 15 0 16 0;
#X connect 15 0 17 0;
#X connect 15 0 18 0;
#X connect 15 0 22 0;
#X connect 16 0 21 0;
#X connect 16 1 21 0;
#X connect 17 0 21 0;
#X connect 17 1 21 0;
#X connect 18 0 21 0;
#X connect 18 1 21 0;
#X connect 19 0 18 1;
#X connect 19 0 16 1;
#X connect 19 0 17 1;
#X connect 19 0 22 1;
#X connect 20 0 19 0;
#X connect 21 0 27 0;
#X connect 22 0 21 0;
#X connect 22 1 21 0;
#X connect 23 0 1 0;
#X connect 24 0 23 0;
#X connect 24 0 23 0;
#X connect 25 0 14 0;
#X connect 25 0 14 0;
#X connect 26 0 28 1;
#X connect 27 0 28 0;
#X connect 28 0 29 0;
#X connect 29 0 30 0;
#X connect 31 0 29 1;
#X connect 32 0 31 0;
#X connect 33 0 31 0;
#X connect 34 0 32 0;
#X connect 35 0 33 0;
#X connect 36 0 3 0;
#X restore 209 42 pd rocket;
#X obj 249 158 dac~;
#X obj 307 43 loadbang;
#X msg 294 85 0.15;
#X obj 247 114 *~;
#X text 210 12 Rocket sound;
#X obj 496 7 cnv 15 300 200 empty empty empty 20 12 0 14 -262130 -66577
0;
#N canvas 91 1 1818 1014 gravity 0;
#X obj 1047 57 tgl 15 0 empty empty empty 17 7 0 10 -262144 -1 -1 0
1;
#X floatatom 1075 350 5 0 0 0 - - -;
#X obj 1075 314 mtof;
#X obj 1076 497 osc~;
#X floatatom 1148 213 5 0 0 0 - - -;
#X obj 1233 163 f;
#X obj 1269 162 + 1;
#X obj 1147 264 select 0;
#X obj 1096 82 bng 15 250 50 0 empty empty empty 17 7 0 10 -262144
-1 -1;
#X obj 1189 464 vline~;
#X obj 1148 237 mod 30;
#X obj 1352 39 bng 15 250 50 0 empty empty empty 17 7 0 10 -262144
-1 -1;
#X obj 1345 79 25;
#X obj 1263 124 10;
#X floatatom 822 351 5 0 0 0 - - -;
#X obj 822 427 *~;
#X obj 822 315 mtof;
#X obj 929 384 vline~;
#X floatatom 832 263 5 0 0 0 - - -;
#X obj 869 158 bng 15 250 50 0 empty empty empty 17 7 0 10 -262144
-1 -1;
#X msg 831 221 10;
#X obj 821 386 osc~;
#X floatatom 1075 460 5 0 0 0 - - -;
#X obj 1352 226 f;
#X obj 1407 223 + 1;
#X floatatom 1247 298 5 0 0 0 - - -;
#X obj 1074 395 + 0;
#X obj 1188 346 * 0.25;
#X obj 1047 112 metro 50;
#X obj 1076 539 *~;
#X msg 927 351 0.5 100 \, 0 100 100;
#X obj 846 611 *~ 1;
#X obj 1052 10 r osc_aurastate;
#X obj 853 494 r osc_blueaura;
#X msg 874 554 0;
#X obj 945 525 r osc_yellowaura;
#X msg 944 567 1;
#X msg 1188 431 1 250 \, 0 50 250;
#N canvas 94 110 740 599 reverb 0;
#X obj 156 195 inlet~;
#X obj 138 510 outlet~;
#X floatatom 438 302 0 0 120 0 - - -;
#X text 479 302 level \, dB;
#X floatatom 466 319 0 0 100 0 - - -;
#X text 507 319 liveness \, 0-100;
#X floatatom 501 343 4 0 5000 0 - - -;
#X floatatom 536 366 0 0 100 0 - - -;
#X text 549 341 crossover frequency \, Hz.;
#X text 572 368 HF damping \, percent;
#X obj 229 379 rev3~ 100 90 3000 20;
#X obj 241 477 *~;
#X floatatom 311 445 5 0 0 0 - - -;
#X obj 21 435 *~;
#X floatatom 60 407 5 0 0 0 - - -;
#X text 349 445 wet reverb signal;
#X text 97 410 "dry" signal;
#X floatatom 404 205 5 0 0 0 - - -;
#X obj 244 233 expr 1 - $f1;
#X obj 401 118 loadbang;
#X msg 403 149 0.2;
#X connect 0 0 13 0;
#X connect 0 0 10 0;
#X connect 2 0 10 2;
#X connect 4 0 10 3;
#X connect 6 0 10 4;
#X connect 7 0 10 5;
#X connect 10 0 11 0;
#X connect 10 1 11 0;
#X connect 10 2 11 0;
#X connect 10 3 11 0;
#X connect 11 0 1 0;
#X connect 12 0 11 1;
#X connect 13 0 1 0;
#X connect 14 0 13 1;
#X connect 17 0 12 0;
#X connect 17 0 18 0;
#X connect 18 0 14 0;
#X connect 19 0 20 0;
#X connect 20 0 17 0;
#X restore 1055 788 pd reverb;
#X obj 1037 739 expr~ tanh($v1);
#X obj 1055 841 *~ 1;
#X obj 1011 657 +~;
#X obj 1052 893 outlet~;
#X text 1432 117 Frequency starts at 10 and goes up to 30;
#X text 1438 139 When it reaches 30 \, it resets to 25;
#X text 1442 165 then coninuously goes from 25 to 30;
#X text 785 661 This entire left side is to;
#X text 787 686 add noise distortion based;
#X text 788 711 on which planet is being hovered;
#X text 1347 437 Vline slowly rises and quickly falls to add;
#X text 1351 460 that "gravity"-esque feel;
#X text 1173 768 added distortion to clean the audio;
#X text 1176 796 finished off with reverb to add some extra depth;
#X obj 1360 189 600;
#X connect 0 0 8 0;
#X connect 0 0 19 0;
#X connect 0 0 28 0;
#X connect 1 0 26 0;
#X connect 2 0 1 0;
#X connect 3 0 29 0;
#X connect 4 0 2 0;
#X connect 4 0 10 0;
#X connect 5 0 6 0;
#X connect 5 0 4 0;
#X connect 6 0 5 1;
#X connect 7 0 11 0;
#X connect 8 0 13 0;
#X connect 8 0 53 0;
#X connect 9 0 29 1;
#X connect 10 0 7 0;
#X connect 11 0 12 0;
#X connect 11 0 24 0;
#X connect 12 0 5 1;
#X connect 13 0 5 1;
#X connect 14 0 21 0;
#X connect 15 0 31 0;
#X connect 16 0 14 0;
#X connect 17 0 15 1;
#X connect 18 0 16 0;
#X connect 19 0 20 0;
#X connect 20 0 18 0;
#X connect 21 0 15 0;
#X connect 22 0 3 0;
#X connect 23 0 25 0;
#X connect 23 0 24 0;
#X connect 24 0 23 1;
#X connect 25 0 27 0;
#X connect 26 0 22 0;
#X connect 27 0 26 1;
#X connect 28 0 5 0;
#X connect 28 0 37 0;
#X connect 28 0 30 0;
#X connect 28 0 23 0;
#X connect 29 0 41 1;
#X connect 30 0 17 0;
#X connect 30 0 17 0;
#X connect 31 0 41 0;
#X connect 32 0 0 0;
#X connect 33 0 34 0;
#X connect 34 0 31 1;
#X connect 35 0 36 0;
#X connect 36 0 31 1;
#X connect 37 0 9 0;
#X connect 37 0 9 0;
#X connect 38 0 40 0;
#X connect 39 0 38 0;
#X connect 40 0 42 0;
#X connect 41 0 39 0;
#X connect 53 0 23 1;
#X restore 552 34 pd gravity;
#X obj 562 153 dac~;
#X obj 698 55 loadbang;
#X msg 698 81 0.15;
#X obj 550 89 *~;
#X text 506 8 Gravity well sound;
#X text 1108 -61 Start global rhythm;
#X obj 1437 -117 cnv 15 350 250 empty empty empty 20 12 0 14 -261234
-66577 0;
#X text 1013 -6 Reset laser melodies & toggle between "blip sound"
and "laser sound", f 24;
#X text 1145 136 Counter 0-31 for 2 bars of 16th notes, f 33;
#N canvas 91 1 1818 1014 backMusic 1;
#X obj 1240 431 soundfiler;
#X obj 1241 375 bng 15 250 50 0 empty empty empty 17 7 0 10 -262144
-1 -1;
#X obj 1241 348 loadbang;
#N canvas 212 36 450 300 (subpatch) 0;
#X array blueSoundData 2.11463e+006 float 0;
#X coords 0 1 2.11463e+006 -1 300 100 1;
#X restore 1239 623 graph;
#X floatatom 1240 455 15 0 0 0 - - -;
#X obj 1240 481 / 44100;
#X obj 1239 510 * 1000;
#X floatatom 1239 536 5 0 0 0 - - -;
#X msg 1661 375 0;
#X obj 1630 374 bng 15 250 50 0 empty empty empty 17 7 0 10 -262144
-1 -1;
#X msg 1696 376 stop;
#X obj 1645 327 metro 1000;
#X obj 1645 293 tgl 15 0 empty empty empty 17 7 0 10 -262144 -1 -1
0 1;
#X floatatom 1702 303 5 0 0 0 - - -;
#X obj 404 432 soundfiler;
#X obj 405 376 bng 15 250 50 0 empty empty empty 17 7 0 10 -262144
-1 -1;
#X obj 405 349 loadbang;
#N canvas 212 36 450 300 (subpatch) 0;
#X array yellowSoundData 707243 float 0;
#X coords 0 1 707242 -1 300 100 1 0 0;
#X restore 403 624 graph;
#X floatatom 404 456 15 0 0 0 - - -;
#X obj 404 482 / 44100;
#X obj 403 511 * 1000;
#X floatatom 403 537 5 0 0 0 - - -;
#X msg 825 376 0;
#X obj 794 375 bng 15 250 50 0 empty empty empty 17 7 0 10 -262144
-1 -1;
#X msg 860 377 stop;
#X obj 809 328 metro 1000;
#X obj 809 294 tgl 15 0 empty empty empty 17 7 0 10 -262144 -1 -1 0
1;
#X floatatom 866 304 5 0 0 0 - - -;
#X obj 1240 566 s loopTimeBlue;
#X obj 1703 279 r loopTimeBlue;
#X obj 404 567 s loopTimeYellow;
#X obj 867 280 r loopTimeYellow;
#X obj 1096 144 tgl 15 0 empty empty empty 17 7 0 10 -262144 -1 -1
0 1;
#X msg 405 405 read -resize theYellowPlanet.wav yellowSoundData;
#X obj 823 422 tabplay~ yellowSoundData;
#X msg 1241 404 read -resize theBluePlanet.wav blueSoundData;
#X obj 1659 421 tabplay~ blueSoundData;
#X obj 866 540 r fadeYellow;
#X obj 977 541 r gainYellow;
#X obj 1699 513 r fadeBlue;
#X obj 1810 514 r gainBlue;
#X obj 1356 147 s fadeYellow;
#X obj 1532 147 s gainYellow;
#X obj 1207 151 s gainBlue;
#X obj 1650 149 s fadeBlue;
#X obj 960 646 vline~;
#X obj 1698 594 vline~;
#X obj 768 594 loadbang;
#X obj 816 666 *~;
#X obj 1594 593 loadbang;
#X obj 1662 656 *~;
#X msg 867 575 0 1000;
#X msg 980 576 1 1000;
#X msg 1702 554 0 1000;
#X msg 1815 555 1 1000;
#X obj 1356 75 inlet;
#X obj 1586 62 inlet;
#X obj 1072 58 inlet;
#X msg 773 627 0;
#X msg 1600 622 0;
#X obj 1350 865 +~;
#X obj 1350 941 outlet~;
#X text 729 102 Start both tracks at the same time and fade between
them based on Unity signals, f 41;
#X connect 0 0 4 0;
#X connect 1 0 35 0;
#X connect 2 0 1 0;
#X connect 4 0 5 0;
#X connect 5 0 6 0;
#X connect 6 0 7 0;
#X connect 7 0 28 0;
#X connect 8 0 36 0;
#X connect 9 0 36 0;
#X connect 10 0 36 0;
#X connect 11 0 9 0;
#X connect 12 0 11 0;
#X connect 13 0 11 1;
#X connect 14 0 18 0;
#X connect 15 0 33 0;
#X connect 16 0 15 0;
#X connect 18 0 19 0;
#X connect 19 0 20 0;
#X connect 20 0 21 0;
#X connect 21 0 30 0;
#X connect 22 0 34 0;
#X connect 23 0 34 0;
#X connect 24 0 34 0;
#X connect 25 0 23 0;
#X connect 26 0 25 0;
#X connect 27 0 25 1;
#X connect 29 0 13 0;
#X connect 31 0 27 0;
#X connect 32 0 26 0;
#X connect 32 0 12 0;
#X connect 33 0 14 0;
#X connect 34 0 48 0;
#X connect 35 0 0 0;
#X connect 36 0 50 0;
#X connect 37 0 51 0;
#X connect 38 0 52 0;
#X connect 39 0 53 0;
#X connect 40 0 54 0;
#X connect 45 0 48 1;
#X connect 46 0 50 1;
#X connect 47 0 58 0;
#X connect 48 0 60 0;
#X connect 49 0 59 0;
#X connect 50 0 60 1;
#X connect 51 0 45 0;
#X connect 52 0 45 0;
#X connect 53 0 46 0;
#X connect 54 0 46 0;
#X connect 55 0 41 0;
#X connect 55 0 43 0;
#X connect 56 0 42 0;
#X connect 56 0 44 0;
#X connect 57 0 32 0;
#X connect 58 0 48 1;
#X connect 59 0 50 1;
#X connect 60 0 61 0;
#X restore 1478 -16 pd backMusic;
#X obj 1607 -95 r osc_yellowaura;
#X obj 1460 -86 r osc_blueaura;
#X obj 1502 103 dac~;
#X obj 1489 -53 bng 15 250 50 0 empty empty empty 17 7 0 10 -262144
-1 -1;
#X obj 1580 -46 bng 15 250 50 0 empty empty empty 17 7 0 10 -262144
-1 -1;
#X obj 1611 12 loadbang;
#X msg 1576 60 0.08;
#X obj 1503 53 *~;
#X text 1451 -109 Background music;
#X obj 600 267 cnv 15 660 750 empty empty empty 20 12 0 14 -257985
-66577 0;
#N canvas 89 -9 1822 1026 laserSounds 0;
#X obj 1067 735 +;
#X floatatom 798 82 5 0 0 0 - - -;
#X floatatom 303 319 5 0 0 0 - - -;
#X floatatom 348 322 5 0 0 0 - - -;
#X floatatom 403 319 5 0 0 0 - - -;
#X floatatom 459 324 5 0 0 0 - - -;
#X floatatom 513 319 5 0 0 0 - - -;
#X floatatom 567 323 5 0 0 0 - - -;
#X floatatom 618 326 5 0 0 0 - - -;
#X floatatom 667 326 5 0 0 0 - - -;
#X floatatom 717 326 5 0 0 0 - - -;
#X floatatom 763 325 5 0 0 0 - - -;
#X floatatom 815 321 5 0 0 0 - - -;
#X floatatom 871 326 5 0 0 0 - - -;
#X floatatom 925 324 5 0 0 0 - - -;
#X floatatom 979 325 5 0 0 0 - - -;
#X floatatom 1030 328 5 0 0 0 - - -;
#X floatatom 1082 330 5 0 0 0 - - -;
#X obj 1400 545 unpack 0 0 0 0 0 0 0 0;
#X floatatom 1023 599 5 0 0 0 - - -;
#X floatatom 1075 600 5 0 0 0 - - -;
#X floatatom 1133 599 5 0 0 0 - - -;
#X floatatom 1193 598 5 0 0 0 - - -;
#X floatatom 1250 597 5 0 0 0 - - -;
#X floatatom 1301 598 5 0 0 0 - - -;
#X floatatom 1352 600 5 0 0 0 - - -;
#X obj 1141 853 * 12;
#X obj 1141 794 random 3;
#X obj 1141 820 - 1;
#X obj 1110 889 +;
#X obj 1111 456 random 3;
#X obj 1183 456 random 4;
#X obj 1039 505 select 0 1 2;
#X obj 1183 504 select 0 1 2 3;
#X floatatom 908 732 5 0 0 0 - - -;
#X floatatom 1325 759 5 0 0 0 - - -;
#X obj 1333 812 + 0;
#X obj 964 35 inlet;
#X obj 1227 75 inlet;
#X obj 1401 76 inlet;
#X obj 1794 497 inlet;
#X obj 1020 416 select 1 2;
#X obj 1210 385 * 1;
#X obj 1622 478 outlet;
#X obj 899 835 outlet;
#X obj 596 160 select 1 2 3 4 5 6 7 8 9 10 11 12 13 14 15 16 17 18
19 20 21 22 23 24 25 26 27 28 29 30 31;
#X floatatom 1132 328 5 0 0 0 - - -;
#X floatatom 1177 331 5 0 0 0 - - -;
#X floatatom 1232 328 5 0 0 0 - - -;
#X floatatom 1288 333 5 0 0 0 - - -;
#X floatatom 1342 328 5 0 0 0 - - -;
#X floatatom 1396 332 5 0 0 0 - - -;
#X floatatom 1447 335 5 0 0 0 - - -;
#X floatatom 1496 335 5 0 0 0 - - -;
#X floatatom 1546 335 5 0 0 0 - - -;
#X floatatom 1590 328 5 0 0 0 - - -;
#X floatatom 1644 330 5 0 0 0 - - -;
#X floatatom 1700 335 5 0 0 0 - - -;
#X floatatom 1754 333 5 0 0 0 - - -;
#X floatatom 1808 334 5 0 0 0 - - -;
#X floatatom 1859 337 5 0 0 0 - - -;
#X floatatom 1911 339 5 0 0 0 - - -;
#X obj 1100 165 unpack 0 0 0 0 0 0 0 0 0 0 0 0 0 0 0 0;
#X obj 1462 168 unpack 0 0 0 0 0 0 0 0 0 0 0 0 0 0 0 0;
#X text 766 414 If sequence value is 1 \, select from 1 \, 3 \, 5 of
scale, f 31;
#X text 765 452 If sequence value is 2 \, select from 2 \, 4 \, 6 \,
7 of scale, f 31;
#X text 955 76 Sequence position;
#X text 1202 44 "Left" sequence;
#X text 1371 39 "Right" sequence;
#X text 1769 530 Scale;
#X connect 0 0 27 0;
#X connect 0 0 29 0;
#X connect 1 0 45 0;
#X connect 2 0 42 0;
#X connect 3 0 42 0;
#X connect 4 0 42 0;
#X connect 5 0 42 0;
#X connect 6 0 42 0;
#X connect 7 0 42 0;
#X connect 8 0 42 0;
#X connect 9 0 42 0;
#X connect 10 0 42 0;
#X connect 11 0 42 0;
#X connect 12 0 42 0;
#X connect 13 0 42 0;
#X connect 14 0 42 0;
#X connect 15 0 42 0;
#X connect 16 0 42 0;
#X connect 17 0 42 0;
#X connect 18 0 35 0;
#X connect 18 1 19 0;
#X connect 18 2 20 0;
#X connect 18 3 21 0;
#X connect 18 4 22 0;
#X connect 18 5 23 0;
#X connect 18 6 24 0;
#X connect 18 7 25 0;
#X connect 19 0 0 0;
#X connect 20 0 0 0;
#X connect 21 0 0 0;
#X connect 22 0 0 0;
#X connect 23 0 0 0;
#X connect 24 0 0 0;
#X connect 25 0 0 0;
#X connect 26 0 29 1;
#X connect 27 0 28 0;
#X connect 28 0 26 0;
#X connect 29 0 34 0;
#X connect 30 0 32 0;
#X connect 31 0 33 0;
#X connect 32 0 19 0;
#X connect 32 1 21 0;
#X connect 32 2 23 0;
#X connect 33 0 20 0;
#X connect 33 1 22 0;
#X connect 33 2 24 0;
#X connect 33 3 25 0;
#X connect 34 0 44 0;
#X connect 35 0 36 0;
#X connect 36 0 0 1;
#X connect 37 0 1 0;
#X connect 38 0 62 0;
#X connect 39 0 63 0;
#X connect 40 0 18 0;
#X connect 41 0 30 0;
#X connect 41 1 31 0;
#X connect 42 0 41 0;
#X connect 42 0 43 0;
#X connect 45 0 2 0;
#X connect 45 1 3 0;
#X connect 45 2 4 0;
#X connect 45 3 5 0;
#X connect 45 4 6 0;
#X connect 45 5 7 0;
#X connect 45 6 8 0;
#X connect 45 7 9 0;
#X connect 45 8 10 0;
#X connect 45 9 11 0;
#X connect 45 10 12 0;
#X connect 45 11 13 0;
#X connect 45 12 14 0;
#X connect 45 13 15 0;
#X connect 45 14 16 0;
#X connect 45 15 17 0;
#X connect 45 16 46 0;
#X connect 45 17 47 0;
#X connect 45 18 48 0;
#X connect 45 19 49 0;
#X connect 45 20 50 0;
#X connect 45 21 51 0;
#X connect 45 22 52 0;
#X connect 45 23 53 0;
#X connect 45 24 54 0;
#X connect 45 25 55 0;
#X connect 45 26 56 0;
#X connect 45 27 57 0;
#X connect 45 28 58 0;
#X connect 45 29 59 0;
#X connect 45 30 60 0;
#X connect 45 31 61 0;
#X connect 46 0 42 0;
#X connect 47 0 42 0;
#X connect 48 0 42 0;
#X connect 49 0 42 0;
#X connect 50 0 42 0;
#X connect 51 0 42 0;
#X connect 52 0 42 0;
#X connect 53 0 42 0;
#X connect 54 0 42 0;
#X connect 55 0 42 0;
#X connect 56 0 42 0;
#X connect 57 0 42 0;
#X connect 58 0 42 0;
#X connect 59 0 42 0;
#X connect 60 0 42 0;
#X connect 61 0 42 0;
#X connect 62 0 2 0;
#X connect 62 1 3 0;
#X connect 62 2 4 0;
#X connect 62 3 5 0;
#X connect 62 4 6 0;
#X connect 62 5 7 0;
#X connect 62 6 8 0;
#X connect 62 7 9 0;
#X connect 62 8 10 0;
#X connect 62 9 11 0;
#X connect 62 10 12 0;
#X connect 62 11 13 0;
#X connect 62 12 14 0;
#X connect 62 13 15 0;
#X connect 62 14 16 0;
#X connect 62 15 17 0;
#X connect 63 0 46 0;
#X connect 63 1 47 0;
#X connect 63 2 48 0;
#X connect 63 3 49 0;
#X connect 63 4 50 0;
#X connect 63 5 51 0;
#X connect 63 6 52 0;
#X connect 63 7 53 0;
#X connect 63 8 54 0;
#X connect 63 9 55 0;
#X connect 63 10 56 0;
#X connect 63 11 57 0;
#X connect 63 12 58 0;
#X connect 63 13 59 0;
#X connect 63 14 60 0;
#X connect 63 15 61 0;
#X restore 861 462 pd laserSounds;
#X floatatom 795 648 5 0 0 0 - - -;
#X obj 799 997 dac~;
#X obj 797 752 mtof;
#X obj 784 535 pack 0 0;
#X obj 778 586 route 1 2;
#X obj 789 707 +;
#X obj 603 611 bng 15 250 50 0 empty empty empty 17 7 0 10 -262144
-1 -1;
#X msg 650 672 0;
#N canvas 1001 0 909 1016 laserShifter 0;
#X obj 696 738 osc~;
#X floatatom 293 706 5 0 0 0 - - -;
#X floatatom 274 677 5 0 0 0 - - -;
#X floatatom 257 655 5 0 0 0 - - -;
#X floatatom 222 605 5 0 0 0 - - -;
#X floatatom 240 630 5 0 0 0 - - -;
#X text 260 603 peak level;
#X text 281 625 attack duration (ms);
#X text 295 647 decay duration (ms);
#X text 315 673 sustain level (% of peak);
#X text 327 703 release duration (ms);
#N canvas 251 52 707 458 envelope_adsr 0;
#X obj 209 53 moses;
#X obj 112 56 inlet;
#X obj 112 92 sel 0;
#X msg 111 130 stop;
#X obj 209 93 t b b;
#X obj 258 125 t b;
#X obj 174 209 f \$1;
#X obj 174 245 pack 0 \$2;
#X msg 125 245 0;
#X obj 337 145 inlet;
#X obj 377 145 inlet;
#X obj 421 145 inlet;
#X obj 461 145 inlet;
#X obj 314 239 del \$2;
#X obj 314 265 f \$4;
#X obj 390 268 * \$1;
#X obj 389 299 pack 0 \$3;
#X obj 472 301 pack 0 \$5;
#X obj 518 269 inlet;
#X obj 354 358 line~;
#X obj 354 386 outlet~;
#X obj 313 299 * 0.5;
#X connect 0 0 4 0;
#X connect 0 1 5 0;
#X connect 1 0 2 0;
#X connect 2 0 3 0;
#X connect 2 0 17 0;
#X connect 2 1 0 0;
#X connect 3 0 13 0;
#X connect 4 0 5 0;
#X connect 4 1 8 0;
#X connect 5 0 6 0;
#X connect 5 0 13 0;
#X connect 6 0 7 0;
#X connect 7 0 19 0;
#X connect 8 0 19 0;
#X connect 9 0 15 1;
#X connect 9 0 6 1;
#X connect 10 0 13 1;
#X connect 10 0 7 1;
#X connect 11 0 16 1;
#X connect 12 0 14 1;
#X connect 13 0 14 0;
#X connect 14 0 21 0;
#X connect 15 0 16 0;
#X connect 16 0 19 0;
#X connect 17 0 19 0;
#X connect 18 0 17 1;
#X connect 19 0 20 0;
#X connect 21 0 15 0;
#X restore 199 744 pd envelope_adsr;
#X msg 302 559 1;
#X obj 309 516 loadbang;
#X obj 173 643 tgl 15 0 empty empty empty 17 7 0 10 -262144 -1 -1 0
1;
#X obj 180 525 bng 15 250 50 0 empty empty empty 17 7 0 10 -262144
-1 -1;
#X msg 151 601 1;
#X msg 183 601 0;
#X msg 419 559 1;
#X obj 183 568 del 100;
#X obj 653 671 t b f;
#X obj 678 769 *~;
#X msg 339 559 20;
#X msg 462 561 20;
#X obj 714 609 inlet;
#X obj 735 1063 outlet~;
#X floatatom 1285 598 5 0 0 0 - - -;
#X floatatom 1266 569 5 0 0 0 - - -;
#X floatatom 1249 544 5 0 0 0 - - -;
#X floatatom 1214 497 5 0 0 0 - - -;
#X floatatom 1232 522 5 0 0 0 - - -;
#X text 1252 495 peak level;
#X text 1273 517 attack duration (ms);
#X text 1287 539 decay duration (ms);
#X text 1307 565 sustain level (% of peak);
#X text 1319 595 release duration (ms);
#N canvas 251 52 707 458 envelope_adsr 0;
#X obj 209 53 moses;
#X obj 112 56 inlet;
#X obj 112 92 sel 0;
#X msg 111 130 stop;
#X obj 209 93 t b b;
#X obj 258 125 t b;
#X obj 174 209 f \$1;
#X obj 174 245 pack 0 \$2;
#X msg 125 245 0;
#X obj 337 145 inlet;
#X obj 377 145 inlet;
#X obj 421 145 inlet;
#X obj 461 145 inlet;
#X obj 314 239 del \$2;
#X obj 314 265 f \$4;
#X obj 390 268 * \$1;
#X obj 389 299 pack 0 \$3;
#X obj 472 301 pack 0 \$5;
#X obj 518 269 inlet;
#X obj 354 358 line~;
#X obj 354 386 outlet~;
#X obj 313 299 * 0.5;
#X connect 0 0 4 0;
#X connect 0 1 5 0;
#X connect 1 0 2 0;
#X connect 2 0 3 0;
#X connect 2 0 17 0;
#X connect 2 1 0 0;
#X connect 3 0 13 0;
#X connect 4 0 5 0;
#X connect 4 1 8 0;
#X connect 5 0 6 0;
#X connect 5 0 13 0;
#X connect 6 0 7 0;
#X connect 7 0 19 0;
#X connect 8 0 19 0;
#X connect 9 0 15 1;
#X connect 9 0 6 1;
#X connect 10 0 13 1;
#X connect 10 0 7 1;
#X connect 11 0 16 1;
#X connect 12 0 14 1;
#X connect 13 0 14 0;
#X connect 14 0 21 0;
#X connect 15 0 16 0;
#X connect 16 0 19 0;
#X connect 17 0 19 0;
#X connect 18 0 17 1;
#X connect 19 0 20 0;
#X connect 21 0 15 0;
#X restore 1191 636 pd envelope_adsr;
#X msg 1294 451 1;
#X obj 1301 408 loadbang;
#X obj 1165 535 tgl 15 0 empty empty empty 17 7 0 10 -262144 -1 -1
0 1;
#X obj 1172 417 bng 15 250 50 0 empty empty empty 17 7 0 10 -262144
-1 -1;
#X msg 1143 493 1;
#X msg 1175 493 0;
#X msg 1364 453 1;
#X msg 1411 451 1;
#X obj 1175 460 del 100;
#X msg 1331 451 20;
#X msg 1454 453 20;
#X obj 749 1023 +~;
#X obj 992 733 r osc_firestate;
#X floatatom 992 759 5 0 0 0 - - -;
#X obj 984 831 vline~;
#X obj 1003 792 pack 0 0;
#X msg 1116 767 100;
#X obj 1127 710 loadbang;
#X obj 960 903 pack 0 0;
#X obj 966 942 vline~;
#X obj 791 887 *~;
#X obj 694 981 *~;
#X msg 709 939 1;
#X msg 780 842 0;
#X obj 726 802 loadbang;
#X obj 909 1002 unpack;
#X floatatom 903 1039 5 0 0 0 - - -;
#X floatatom 947 1038 5 0 0 0 - - -;
#X obj 877 795 select 0 1;
#X msg 871 830 1;
#X msg 906 828 0;
#X msg 372 561 200;
#X obj 648 844 *~ 0.35;
#N canvas 89 -9 1822 1026 yellowLaserVoice 0;
#X obj 757 622 *~;
#X obj 813 835 outlet~;
#X obj 735 98 inlet, f 9;
#X floatatom 1497 479 5 0 0 0 - - -;
#X floatatom 1478 450 5 0 0 0 - - -;
#X floatatom 1461 425 5 0 0 0 - - -;
#X floatatom 1426 378 5 0 0 0 - - -;
#X floatatom 1444 403 5 0 0 0 - - -;
#X text 1464 376 peak level;
#X text 1485 398 attack duration (ms);
#X text 1499 420 decay duration (ms);
#X text 1519 446 sustain level (% of peak);
#X text 1531 476 release duration (ms);
#N canvas 251 52 707 458 envelope_adsr 0;
#X obj 209 53 moses;
#X obj 112 56 inlet;
#X obj 112 92 sel 0;
#X msg 111 130 stop;
#X obj 209 93 t b b;
#X obj 258 125 t b;
#X obj 174 209 f \$1;
#X obj 174 245 pack 0 \$2;
#X msg 125 245 0;
#X obj 337 145 inlet;
#X obj 377 145 inlet;
#X obj 421 145 inlet;
#X obj 461 145 inlet;
#X obj 314 239 del \$2;
#X obj 314 265 f \$4;
#X obj 390 268 * \$1;
#X obj 389 299 pack 0 \$3;
#X obj 472 301 pack 0 \$5;
#X obj 518 269 inlet;
#X obj 354 358 line~;
#X obj 354 386 outlet~;
#X obj 313 299 * 0.5;
#X connect 0 0 4 0;
#X connect 0 1 5 0;
#X connect 1 0 2 0;
#X connect 2 0 3 0;
#X connect 2 0 17 0;
#X connect 2 1 0 0;
#X connect 3 0 13 0;
#X connect 4 0 5 0;
#X connect 4 1 8 0;
#X connect 5 0 6 0;
#X connect 5 0 13 0;
#X connect 6 0 7 0;
#X connect 7 0 19 0;
#X connect 8 0 19 0;
#X connect 9 0 15 1;
#X connect 9 0 6 1;
#X connect 10 0 13 1;
#X connect 10 0 7 1;
#X connect 11 0 16 1;
#X connect 12 0 14 1;
#X connect 13 0 14 0;
#X connect 14 0 21 0;
#X connect 15 0 16 0;
#X connect 16 0 19 0;
#X connect 17 0 19 0;
#X connect 18 0 17 1;
#X connect 19 0 20 0;
#X connect 21 0 15 0;
#X restore 1403 517 pd envelope_adsr;
#X msg 1513 288 1;
#X obj 1536 258 loadbang;
#X obj 1391 355 tgl 15 0 empty empty empty 17 7 0 10 -262144 -1 -1
0 1;
#X obj 1396 221 bng 15 250 50 0 empty empty empty 17 7 0 10 -262144
-1 -1;
#X msg 1367 297 1;
#X msg 1399 297 0;
#X obj 737 440 phasor~;
#X msg 1590 286 100;
#X msg 1550 287 10;
#X msg 1655 288 0.4;
#X obj 1399 264 del 110;
#N canvas 584 29 616 410 filterbank 0;
#X obj 34 250 *~;
#X floatatom 49 222 5 0 0 0 - - -;
#X obj 34 111 lop~ 4000;
#X floatatom 223 91 5 0 0 0 - - -;
#X floatatom 262 92 5 0 0 0 - - -;
#X floatatom 84 81 5 0 0 0 - - -;
#X obj 381 114 hip~ 200;
#X floatatom 425 87 5 0 0 0 - - -;
#X obj 199 260 *~;
#X floatatom 216 236 5 0 0 0 - - -;
#X obj 379 249 *~;
#X floatatom 396 225 5 0 0 0 - - -;
#X obj 199 10 inlet~;
#X obj 175 354 outlet~;
#X obj 86 52 receive lopFreq;
#X obj 50 193 receive lopGain;
#X obj 425 61 receive hpFreq;
#X obj 397 197 receive hpGain;
#X obj 196 125 bp~ 200 10;
#X obj 268 31 inlet;
#X obj 324 129 inlet;
#X connect 0 0 13 0;
#X connect 1 0 0 1;
#X connect 2 0 0 0;
#X connect 3 0 18 1;
#X connect 4 0 18 2;
#X connect 5 0 2 1;
#X connect 6 0 10 0;
#X connect 7 0 6 1;
#X connect 8 0 13 0;
#X connect 9 0 8 1;
#X connect 10 0 13 0;
#X connect 11 0 10 1;
#X connect 12 0 2 0;
#X connect 12 0 6 0;
#X connect 12 0 18 0;
#X connect 14 0 5 0;
#X connect 15 0 1 0;
#X connect 16 0 7 0;
#X connect 17 0 11 0;
#X connect 18 0 8 0;
#X connect 19 0 3 0;
#X connect 20 0 9 0;
#X restore 816 702 pd filterbank;
#X obj 1201 663 hsl 128 15 1000 4000 0 0 empty empty empty -2 -8 0
10 -262144 -1 -1 2117 1;
#N canvas 94 110 740 599 reverb 0;
#X obj 156 195 inlet~;
#X obj 138 510 outlet~;
#X floatatom 438 302 0 0 120 0 - - -;
#X text 479 302 level \, dB;
#X floatatom 466 319 0 0 100 0 - - -;
#X text 507 319 liveness \, 0-100;
#X floatatom 501 343 4 0 5000 0 - - -;
#X floatatom 536 366 0 0 100 0 - - -;
#X text 549 341 crossover frequency \, Hz.;
#X text 572 368 HF damping \, percent;
#X obj 229 379 rev3~ 100 90 3000 20;
#X obj 241 477 *~;
#X floatatom 311 445 5 0 0 0 - - -;
#X obj 21 435 *~;
#X floatatom 60 407 5 0 0 0 - - -;
#X text 349 445 wet reverb signal;
#X text 97 410 "dry" signal;
#X floatatom 404 205 5 0 0 0 - - -;
#X obj 244 233 expr 1 - $f1;
#X obj 401 118 loadbang;
#X msg 403 149 0.2;
#X connect 0 0 13 0;
#X connect 0 0 10 0;
#X connect 2 0 10 2;
#X connect 4 0 10 3;
#X connect 6 0 10 4;
#X connect 7 0 10 5;
#X connect 10 0 11 0;
#X connect 10 1 11 0;
#X connect 10 2 11 0;
#X connect 10 3 11 0;
#X connect 11 0 1 0;
#X connect 12 0 11 1;
#X connect 13 0 1 0;
#X connect 14 0 13 1;
#X connect 17 0 12 0;
#X connect 17 0 18 0;
#X connect 18 0 14 0;
#X connect 19 0 20 0;
#X connect 20 0 17 0;
#X restore 831 764 pd reverb;
#X obj 1037 710 loadbang;
#X obj 1198 603 loadbang;
#X msg 1198 629 1500;
#X msg 1037 744 2.75;
#X text 1196 685 Yellow laser has lower bandpass frequency;
#X text 1405 541 From in-class ADSR example;
#X text 682 732 From in-class LT Filter & reverb examples, f 18;
#X connect 0 0 25 0;
#X connect 2 0 20 0;
#X connect 2 0 17 0;
#X connect 3 0 13 5;
#X connect 4 0 13 4;
#X connect 5 0 13 3;
#X connect 6 0 13 1;
#X connect 7 0 13 2;
#X connect 13 0 0 1;
#X connect 14 0 6 0;
#X connect 15 0 14 0;
#X connect 15 0 23 0;
#X connect 16 0 13 0;
#X connect 17 0 18 0;
#X connect 17 0 24 0;
#X connect 18 0 16 0;
#X connect 19 0 16 0;
#X connect 20 0 0 0;
#X connect 21 0 5 0;
#X connect 22 0 7 0;
#X connect 23 0 4 0;
#X connect 24 0 19 0;
#X connect 25 0 27 0;
#X connect 26 0 25 1;
#X connect 27 0 1 0;
#X connect 28 0 31 0;
#X connect 29 0 30 0;
#X connect 30 0 26 0;
#X connect 31 0 25 2;
#X restore 783 704 pd yellowLaserVoice;
#X text 664 516 Fades between "blip sound" (charging laser) and laser
sound (firing laser);
#X text 187 765 From in-class ADSR example;
#X text 426 779 "blip" sound is simple oscillator;
#X text 1157 743 Cross-fading mechanism triggers on switching between
firing/not firing;
#X text 796 676 Laser sound uses laser-specific voicse;
#X connect 0 0 21 1;
#X connect 1 0 11 5;
#X connect 2 0 11 4;
#X connect 3 0 11 3;
#X connect 4 0 11 1;
#X connect 5 0 11 2;
#X connect 11 0 21 0;
#X connect 12 0 4 0;
#X connect 13 0 12 0;
#X connect 13 0 22 0;
#X connect 13 0 18 0;
#X connect 13 0 23 0;
#X connect 13 0 68 0;
#X connect 14 0 11 0;
#X connect 15 0 16 0;
#X connect 15 0 19 0;
#X connect 16 0 14 0;
#X connect 17 0 14 0;
#X connect 18 0 2 0;
#X connect 19 0 17 0;
#X connect 20 0 15 0;
#X connect 20 1 0 0;
#X connect 21 0 69 0;
#X connect 22 0 5 0;
#X connect 23 0 1 0;
#X connect 24 0 20 0;
#X connect 24 0 70 0;
#X connect 26 0 36 5;
#X connect 27 0 36 4;
#X connect 28 0 36 3;
#X connect 29 0 36 1;
#X connect 30 0 36 2;
#X connect 37 0 29 0;
#X connect 38 0 37 0;
#X connect 38 0 46 0;
#X connect 38 0 44 0;
#X connect 38 0 47 0;
#X connect 38 0 43 0;
#X connect 39 0 36 0;
#X connect 40 0 41 0;
#X connect 40 0 45 0;
#X connect 41 0 39 0;
#X connect 42 0 39 0;
#X connect 43 0 28 0;
#X connect 44 0 27 0;
#X connect 45 0 42 0;
#X connect 46 0 30 0;
#X connect 47 0 26 0;
#X connect 48 0 25 0;
#X connect 49 0 50 0;
#X connect 50 0 52 0;
#X connect 50 0 65 0;
#X connect 51 0 57 1;
#X connect 52 0 51 0;
#X connect 53 0 52 1;
#X connect 53 0 55 1;
#X connect 54 0 53 0;
#X connect 55 0 56 0;
#X connect 55 0 62 0;
#X connect 56 0 58 1;
#X connect 57 0 48 1;
#X connect 58 0 48 0;
#X connect 59 0 58 1;
#X connect 60 0 57 1;
#X connect 61 0 60 0;
#X connect 61 0 59 0;
#X connect 62 0 63 0;
#X connect 62 1 64 0;
#X connect 65 0 66 0;
#X connect 65 1 67 0;
#X connect 66 0 55 0;
#X connect 67 0 55 0;
#X connect 68 0 3 0;
#X connect 69 0 58 0;
#X connect 70 0 57 0;
#X restore 810 848 pd laserShifter;
#X obj 898 277 select 1;
#N canvas 89 -9 1822 1026 yellowBank 0;
#X obj 676 102 inlet;
#X obj 680 208 select 0 1 2 3 4;
#X obj 683 179 random 5;
#X obj 1244 203 select 0 1 2 3 4;
#X obj 1247 174 random 5;
#X msg 329 312 1 0 2 2 0 2 1 0 0 0 0 0 0 0 0;
#X msg 432 380 1 0 2 1 0 1 2 0 1 0 1 0 0 0 0;
#X msg 525 465 1 0 2 2 0 2 2 1 0 1 0 0 0 0 0;
#X msg 640 549 2 2 0 2 0 1 2 1 0 1 1 0 0 0 0;
#X msg 896 607 1 1 0 2 0 2 1 1 0 1 0 0 0 0 0;
#X obj 624 814 list append;
#X obj 113 340 random 2;
#X obj 672 860 outlet;
#X msg 1095 264 1 0 1 1 0 0 0 0 0 0 0 0 0 0 0 0;
#X msg 1179 326 0 0 2 0 2 0 1 2 0 0 0 0 0 0 0 0;
#X msg 1253 400 2 0 1 1 0 1 0 0 0 0 0 0 0 0 0 0;
#X msg 1330 477 1 1 0 1 0 2 1 0 1 0 0 0 0 0 0 0;
#X msg 1448 548 2 1 0 2 0 1 0 1 0 0 0 0 0 0 0 0;
#X obj 1317 839 outlet;
#X text 289 65 Pick first bar "left" and second bar" sequences for
yellow laser. These sequences have more syncopation.;
#X text 58 396 Randomly add a lead-in note to the end of the first-bar
phrase, f 34;
#X connect 0 0 11 0;
#X connect 0 0 4 0;
#X connect 0 0 2 0;
#X connect 1 0 5 0;
#X connect 1 1 6 0;
#X connect 1 2 7 0;
#X connect 1 3 8 0;
#X connect 1 4 9 0;
#X connect 2 0 1 0;
#X connect 3 0 13 0;
#X connect 3 1 14 0;
#X connect 3 2 15 0;
#X connect 3 3 16 0;
#X connect 3 4 17 0;
#X connect 4 0 3 0;
#X connect 5 0 10 0;
#X connect 6 0 10 0;
#X connect 7 0 10 0;
#X connect 8 0 10 0;
#X connect 9 0 10 0;
#X connect 10 0 12 0;
#X connect 11 0 10 1;
#X connect 13 0 18 0;
#X connect 14 0 18 0;
#X connect 15 0 18 0;
#X connect 16 0 18 0;
#X connect 17 0 18 0;
#X restore 873 355 pd yellowBank;
#X obj 649 548 r osc_yellowfire;
#X msg 992 429 72 0 1 3 5 7 8 10;
#X obj 998 392 r osc_blueaura;
#X obj 1135 393 r osc_yellowaura;
#X msg 1128 439 72 0 2 4 5 7 9 9;
#X obj 913 882 loadbang;
#X obj 806 928 *~;
#X msg 902 911 0.3;
#X obj 1530 257 cnv 15 650 750 empty empty empty 20 12 0 14 -4032 -66577
0;
#N canvas 89 -9 1822 1026 laserSounds 0;
#X obj 1067 735 +;
#X floatatom 798 82 5 0 0 0 - - -;
#X floatatom 303 319 5 0 0 0 - - -;
#X floatatom 348 322 5 0 0 0 - - -;
#X floatatom 403 319 5 0 0 0 - - -;
#X floatatom 459 324 5 0 0 0 - - -;
#X floatatom 513 319 5 0 0 0 - - -;
#X floatatom 567 323 5 0 0 0 - - -;
#X floatatom 618 326 5 0 0 0 - - -;
#X floatatom 667 326 5 0 0 0 - - -;
#X floatatom 717 326 5 0 0 0 - - -;
#X floatatom 763 325 5 0 0 0 - - -;
#X floatatom 815 321 5 0 0 0 - - -;
#X floatatom 871 326 5 0 0 0 - - -;
#X floatatom 925 324 5 0 0 0 - - -;
#X floatatom 979 325 5 0 0 0 - - -;
#X floatatom 1030 328 5 0 0 0 - - -;
#X floatatom 1082 330 5 0 0 0 - - -;
#X obj 1400 545 unpack 0 0 0 0 0 0 0 0;
#X floatatom 1023 599 5 0 0 0 - - -;
#X floatatom 1075 600 5 0 0 0 - - -;
#X floatatom 1133 599 5 0 0 0 - - -;
#X floatatom 1193 598 5 0 0 0 - - -;
#X floatatom 1250 597 5 0 0 0 - - -;
#X floatatom 1301 598 5 0 0 0 - - -;
#X floatatom 1352 600 5 0 0 0 - - -;
#X obj 1141 853 * 12;
#X obj 1141 794 random 3;
#X obj 1141 820 - 1;
#X obj 1110 889 +;
#X obj 1111 456 random 3;
#X obj 1183 456 random 4;
#X obj 1039 505 select 0 1 2;
#X obj 1183 504 select 0 1 2 3;
#X floatatom 908 732 5 0 0 0 - - -;
#X floatatom 1325 759 5 0 0 0 - - -;
#X obj 1333 812 + 0;
#X obj 964 35 inlet;
#X obj 1227 75 inlet;
#X obj 1401 76 inlet;
#X obj 1794 497 inlet;
#N canvas 89 -9 1822 1026 bC 0;
#X obj 618 105 r chargeState;
#X obj 465 29 inlet;
#X obj 531 161 bng 15 250 50 0 empty empty empty 17 7 0 10 -262144
-1 -1;
#X obj 440 117 select 0;
#X obj 558 421 select 0;
#X msg 611 460 0, f 5;
#X obj 603 210 +;
#X obj 617 245 select 0 1;
#X obj 740 327 +;
#X obj 558 386 +;
#X msg 679 282 0;
#X obj 708 438 outlet;
#X msg 531 260 0;
#X msg 626 281 1;
#X floatatom 654 349 5 0 0 0 - - -;
#X obj 770 625 s oscOut;
#X obj 908 395 r metro;
#X floatatom 834 449 5 0 0 0 - - -;
#X obj 747 500 pack 0 0;
#X obj 717 635 print;
#X msg 802 551 set blueCharge;
#X obj 770 590 oscformat blueCharge;
#X connect 0 0 6 1;
#X connect 1 0 3 0;
#X connect 1 0 8 1;
#X connect 2 0 6 0;
#X connect 3 1 2 0;
#X connect 4 1 5 0;
#X connect 5 0 8 0;
#X connect 5 0 14 0;
#X connect 6 0 7 0;
#X connect 7 0 12 0;
#X connect 7 1 10 0;
#X connect 7 1 13 0;
#X connect 7 1 14 0;
#X connect 8 0 11 0;
#X connect 9 0 4 0;
#X connect 10 0 8 0;
#X connect 12 0 9 0;
#X connect 13 0 14 0;
#X connect 14 0 9 1;
#X connect 14 0 18 0;
#X connect 16 0 17 0;
#X connect 17 0 18 1;
#X connect 18 0 19 0;
#X connect 18 0 21 0;
#X connect 20 0 21 0;
#X connect 21 0 15 0;
#X restore 303 140 pd bC;
#X obj 1020 416 select 1 2;
#X obj 1210 385 * 1;
#X obj 1622 478 outlet;
#X obj 899 835 outlet;
#X obj 596 160 select 1 2 3 4 5 6 7 8 9 10 11 12 13 14 15 16 17 18
19 20 21 22 23 24 25 26 27 28 29 30 31;
#X floatatom 1132 328 5 0 0 0 - - -;
#X floatatom 1177 331 5 0 0 0 - - -;
#X floatatom 1232 328 5 0 0 0 - - -;
#X floatatom 1288 333 5 0 0 0 - - -;
#X floatatom 1342 328 5 0 0 0 - - -;
#X floatatom 1396 332 5 0 0 0 - - -;
#X floatatom 1447 335 5 0 0 0 - - -;
#X floatatom 1496 335 5 0 0 0 - - -;
#X floatatom 1546 335 5 0 0 0 - - -;
#X floatatom 1590 328 5 0 0 0 - - -;
#X floatatom 1644 330 5 0 0 0 - - -;
#X floatatom 1700 335 5 0 0 0 - - -;
#X floatatom 1754 333 5 0 0 0 - - -;
#X floatatom 1808 334 5 0 0 0 - - -;
#X floatatom 1859 337 5 0 0 0 - - -;
#X floatatom 1911 339 5 0 0 0 - - -;
#X obj 1100 165 unpack 0 0 0 0 0 0 0 0 0 0 0 0 0 0 0 0;
#X obj 1462 168 unpack 0 0 0 0 0 0 0 0 0 0 0 0 0 0 0 0;
#X text 766 414 If sequence value is 1 \, select from 1 \, 3 \, 5 of
scale, f 31;
#X text 765 452 If sequence value is 2 \, select from 2 \, 4 \, 6 \,
7 of scale, f 31;
#X text 955 76 Sequence position;
#X text 1202 44 "Left" sequence;
#X text 1371 39 "Right" sequence;
#X text 1769 530 Scale;
#X connect 0 0 27 0;
#X connect 0 0 29 0;
#X connect 1 0 46 0;
#X connect 2 0 43 0;
#X connect 3 0 43 0;
#X connect 4 0 43 0;
#X connect 5 0 43 0;
#X connect 6 0 43 0;
#X connect 7 0 43 0;
#X connect 8 0 43 0;
#X connect 9 0 43 0;
#X connect 10 0 43 0;
#X connect 11 0 43 0;
#X connect 12 0 43 0;
#X connect 13 0 43 0;
#X connect 14 0 43 0;
#X connect 15 0 43 0;
#X connect 16 0 43 0;
#X connect 17 0 43 0;
#X connect 18 0 35 0;
#X connect 18 1 19 0;
#X connect 18 2 20 0;
#X connect 18 3 21 0;
#X connect 18 4 22 0;
#X connect 18 5 23 0;
#X connect 18 6 24 0;
#X connect 18 7 25 0;
#X connect 19 0 0 0;
#X connect 20 0 0 0;
#X connect 21 0 0 0;
#X connect 22 0 0 0;
#X connect 23 0 0 0;
#X connect 24 0 0 0;
#X connect 25 0 0 0;
#X connect 26 0 29 1;
#X connect 27 0 28 0;
#X connect 28 0 26 0;
#X connect 29 0 34 0;
#X connect 30 0 32 0;
#X connect 31 0 33 0;
#X connect 32 0 19 0;
#X connect 32 1 21 0;
#X connect 32 2 23 0;
#X connect 33 0 20 0;
#X connect 33 1 22 0;
#X connect 33 2 24 0;
#X connect 33 3 25 0;
#X connect 34 0 45 0;
#X connect 35 0 36 0;
#X connect 36 0 0 1;
#X connect 37 0 1 0;
#X connect 38 0 63 0;
#X connect 39 0 64 0;
#X connect 40 0 18 0;
#X connect 42 0 30 0;
#X connect 42 1 31 0;
#X connect 43 0 42 0;
#X connect 43 0 44 0;
#X connect 46 0 2 0;
#X connect 46 1 3 0;
#X connect 46 2 4 0;
#X connect 46 3 5 0;
#X connect 46 4 6 0;
#X connect 46 5 7 0;
#X connect 46 6 8 0;
#X connect 46 7 9 0;
#X connect 46 8 10 0;
#X connect 46 9 11 0;
#X connect 46 10 12 0;
#X connect 46 11 13 0;
#X connect 46 12 14 0;
#X connect 46 13 15 0;
#X connect 46 14 16 0;
#X connect 46 15 17 0;
#X connect 46 16 47 0;
#X connect 46 17 48 0;
#X connect 46 18 49 0;
#X connect 46 19 50 0;
#X connect 46 20 51 0;
#X connect 46 21 52 0;
#X connect 46 22 53 0;
#X connect 46 23 54 0;
#X connect 46 24 55 0;
#X connect 46 25 56 0;
#X connect 46 26 57 0;
#X connect 46 27 58 0;
#X connect 46 28 59 0;
#X connect 46 29 60 0;
#X connect 46 30 61 0;
#X connect 46 31 62 0;
#X connect 47 0 43 0;
#X connect 48 0 43 0;
#X connect 49 0 43 0;
#X connect 50 0 43 0;
#X connect 51 0 43 0;
#X connect 52 0 43 0;
#X connect 53 0 43 0;
#X connect 54 0 43 0;
#X connect 55 0 43 0;
#X connect 56 0 43 0;
#X connect 57 0 43 0;
#X connect 58 0 43 0;
#X connect 59 0 43 0;
#X connect 60 0 43 0;
#X connect 61 0 43 0;
#X connect 62 0 43 0;
#X connect 63 0 2 0;
#X connect 63 1 3 0;
#X connect 63 2 4 0;
#X connect 63 3 5 0;
#X connect 63 4 6 0;
#X connect 63 5 7 0;
#X connect 63 6 8 0;
#X connect 63 7 9 0;
#X connect 63 8 10 0;
#X connect 63 9 11 0;
#X connect 63 10 12 0;
#X connect 63 11 13 0;
#X connect 63 12 14 0;
#X connect 63 13 15 0;
#X connect 63 14 16 0;
#X connect 63 15 17 0;
#X connect 64 0 47 0;
#X connect 64 1 48 0;
#X connect 64 2 49 0;
#X connect 64 3 50 0;
#X connect 64 4 51 0;
#X connect 64 5 52 0;
#X connect 64 6 53 0;
#X connect 64 7 54 0;
#X connect 64 8 55 0;
#X connect 64 9 56 0;
#X connect 64 10 57 0;
#X connect 64 11 58 0;
#X connect 64 12 59 0;
#X connect 64 13 60 0;
#X connect 64 14 61 0;
#X connect 64 15 62 0;
#X restore 1640 478 pd laserSounds;
#X obj 1669 272 select 1;
#N canvas 89 -9 1822 1026 blueBank 0;
#X obj 676 102 inlet;
#X obj 680 208 select 0 1 2 3 4;
#X obj 683 179 random 5;
#X obj 1244 203 select 0 1 2 3 4;
#X obj 1247 174 random 5;
#X obj 672 860 outlet;
#X obj 1317 839 outlet;
#X obj 437 274 1 0 2 0 0 0 1 0 0 0 1 0 0 0 1 0;
#X obj 1064 266 2 0 1 0 0 0 2 0 0 0 1 0 2 0 1 0;
#X obj 538 346 2 0 1 0 0 0 2 0 0 0 1 0 0 0 0 0;
#X obj 1146 333 2 0 1 0 2 0 1 0 0 0 1 0 2 0 1 0;
#X obj 1299 387 1 0 2 0 0 0 1 0 0 0 1 0 2 0 1 0;
#X obj 665 388 1 0 2 0 1 0 1 0 0 0 2 0 1 0 0 0;
#X obj 731 444 0 0 2 0 1 0 2 0 1 0 2 0 1 0 1 0;
#X obj 1412 445 0 0 2 0 0 0 1 0 0 0 1 0 2 0 1 0;
#X obj 783 499 0 0 1 0 0 0 1 0 0 0 1 0 0 0 1 0;
#X obj 1470 494 0 0 0 0 1 0 2 0 0 0 1 0 2 0 1 0;
#X text 289 65 Pick first bar "left" and second bar" sequences for
blue laser. These sequences have less syncopation & more 8th-note rhythms
, f 52;
#X connect 0 0 4 0;
#X connect 0 0 2 0;
#X connect 1 0 7 0;
#X connect 1 1 9 0;
#X connect 1 2 12 0;
#X connect 1 3 13 0;
#X connect 1 4 15 0;
#X connect 2 0 1 0;
#X connect 3 0 8 0;
#X connect 3 1 10 0;
#X connect 3 2 11 0;
#X connect 3 3 14 0;
#X connect 3 4 16 0;
#X connect 4 0 3 0;
#X connect 7 0 5 0;
#X connect 8 0 6 0;
#X connect 9 0 5 0;
#X connect 10 0 6 0;
#X connect 11 0 6 0;
#X connect 12 0 5 0;
#X connect 13 0 5 0;
#X connect 14 0 6 0;
#X connect 15 0 5 0;
#X connect 16 0 6 0;
#X restore 1655 377 pd blueBank;
#X floatatom 1680 711 5 0 0 0 - - -;
#X obj 1770 983 dac~;
#X obj 1682 815 mtof;
#X obj 1669 598 pack 0 0;
#X obj 1663 649 route 1 2;
#X obj 1674 770 +;
#X obj 1760 643 bng 15 250 50 0 empty empty empty 17 7 0 10 -262144
-1 -1;
#X msg 1807 704 0;
#N canvas 89 -9 1822 1026 laserShifter 0;
#X obj 696 738 osc~;
#X floatatom 293 706 5 0 0 0 - - -;
#X floatatom 274 677 5 0 0 0 - - -;
#X floatatom 257 655 5 0 0 0 - - -;
#X floatatom 222 605 5 0 0 0 - - -;
#X floatatom 240 630 5 0 0 0 - - -;
#X text 260 603 peak level;
#X text 281 625 attack duration (ms);
#X text 295 647 decay duration (ms);
#X text 315 673 sustain level (% of peak);
#X text 327 703 release duration (ms);
#N canvas 251 52 707 458 envelope_adsr 0;
#X obj 209 53 moses;
#X obj 112 56 inlet;
#X obj 112 92 sel 0;
#X msg 111 130 stop;
#X obj 209 93 t b b;
#X obj 258 125 t b;
#X obj 174 209 f \$1;
#X obj 174 245 pack 0 \$2;
#X msg 125 245 0;
#X obj 337 145 inlet;
#X obj 377 145 inlet;
#X obj 421 145 inlet;
#X obj 461 145 inlet;
#X obj 314 239 del \$2;
#X obj 314 265 f \$4;
#X obj 390 268 * \$1;
#X obj 389 299 pack 0 \$3;
#X obj 472 301 pack 0 \$5;
#X obj 518 269 inlet;
#X obj 354 358 line~;
#X obj 354 386 outlet~;
#X obj 313 299 * 0.5;
#X connect 0 0 4 0;
#X connect 0 1 5 0;
#X connect 1 0 2 0;
#X connect 2 0 3 0;
#X connect 2 0 17 0;
#X connect 2 1 0 0;
#X connect 3 0 13 0;
#X connect 4 0 5 0;
#X connect 4 1 8 0;
#X connect 5 0 6 0;
#X connect 5 0 13 0;
#X connect 6 0 7 0;
#X connect 7 0 19 0;
#X connect 8 0 19 0;
#X connect 9 0 15 1;
#X connect 9 0 6 1;
#X connect 10 0 13 1;
#X connect 10 0 7 1;
#X connect 11 0 16 1;
#X connect 12 0 14 1;
#X connect 13 0 14 0;
#X connect 14 0 21 0;
#X connect 15 0 16 0;
#X connect 16 0 19 0;
#X connect 17 0 19 0;
#X connect 18 0 17 1;
#X connect 19 0 20 0;
#X connect 21 0 15 0;
#X restore 199 744 pd envelope_adsr;
#X msg 302 559 1;
#X obj 309 516 loadbang;
#X obj 173 643 tgl 15 0 empty empty empty 17 7 0 10 -262144 -1 -1 0
1;
#X obj 180 525 bng 15 250 50 0 empty empty empty 17 7 0 10 -262144
-1 -1;
#X msg 151 601 1;
#X msg 183 601 0;
#X msg 419 559 1;
#X obj 183 568 del 100;
#X obj 653 671 t b f;
#X obj 678 769 *~;
#X msg 462 561 20;
#X obj 714 609 inlet;
#X obj 735 1063 outlet~;
#X obj 1006 624 phasor~;
#X obj 749 1023 +~;
#X obj 992 733 r osc_firestate;
#X floatatom 992 759 5 0 0 0 - - -;
#X obj 984 831 vline~;
#X obj 1003 792 pack 0 0;
#X msg 1116 767 100;
#X obj 1127 710 loadbang;
#X obj 960 903 pack 0 0;
#X obj 966 942 vline~;
#X obj 791 887 *~;
#X obj 694 981 *~;
#X msg 709 939 1;
#X msg 780 842 0;
#X obj 726 802 loadbang;
#X obj 909 1002 unpack;
#X floatatom 903 1039 5 0 0 0 - - -;
#X floatatom 947 1038 5 0 0 0 - - -;
#X obj 877 795 select 0 1;
#X msg 871 830 1;
#X msg 906 828 0;
#X msg 372 561 800;
#X msg 339 559 100;
#X obj 589 865 *~ 0.35;
#N canvas 89 -9 1822 1026 blueLaserVoice 0;
#X obj 757 622 *~;
#X obj 813 835 outlet~;
#X obj 735 98 inlet, f 9;
#X obj 763 797 dac~;
#X floatatom 1497 479 5 0 0 0 - - -;
#X floatatom 1478 450 5 0 0 0 - - -;
#X floatatom 1461 425 5 0 0 0 - - -;
#X floatatom 1426 378 5 0 0 0 - - -;
#X floatatom 1444 403 5 0 0 0 - - -;
#X text 1464 376 peak level;
#X text 1485 398 attack duration (ms);
#X text 1499 420 decay duration (ms);
#X text 1519 446 sustain level (% of peak);
#X text 1531 476 release duration (ms);
#N canvas 251 52 707 458 envelope_adsr 0;
#X obj 209 53 moses;
#X obj 112 56 inlet;
#X obj 112 92 sel 0;
#X msg 111 130 stop;
#X obj 209 93 t b b;
#X obj 258 125 t b;
#X obj 174 209 f \$1;
#X obj 174 245 pack 0 \$2;
#X msg 125 245 0;
#X obj 337 145 inlet;
#X obj 377 145 inlet;
#X obj 421 145 inlet;
#X obj 461 145 inlet;
#X obj 314 239 del \$2;
#X obj 314 265 f \$4;
#X obj 390 268 * \$1;
#X obj 389 299 pack 0 \$3;
#X obj 472 301 pack 0 \$5;
#X obj 518 269 inlet;
#X obj 354 358 line~;
#X obj 354 386 outlet~;
#X obj 313 299 * 0.5;
#X connect 0 0 4 0;
#X connect 0 1 5 0;
#X connect 1 0 2 0;
#X connect 2 0 3 0;
#X connect 2 0 17 0;
#X connect 2 1 0 0;
#X connect 3 0 13 0;
#X connect 4 0 5 0;
#X connect 4 1 8 0;
#X connect 5 0 6 0;
#X connect 5 0 13 0;
#X connect 6 0 7 0;
#X connect 7 0 19 0;
#X connect 8 0 19 0;
#X connect 9 0 15 1;
#X connect 9 0 6 1;
#X connect 10 0 13 1;
#X connect 10 0 7 1;
#X connect 11 0 16 1;
#X connect 12 0 14 1;
#X connect 13 0 14 0;
#X connect 14 0 21 0;
#X connect 15 0 16 0;
#X connect 16 0 19 0;
#X connect 17 0 19 0;
#X connect 18 0 17 1;
#X connect 19 0 20 0;
#X connect 21 0 15 0;
#X restore 1403 517 pd envelope_adsr;
#X msg 1513 288 1;
#X obj 1536 258 loadbang;
#X obj 1391 355 tgl 15 0 empty empty empty 17 7 0 10 -262144 -1 -1
0 1;
#X obj 1396 221 bng 15 250 50 0 empty empty empty 17 7 0 10 -262144
-1 -1;
#X msg 1367 297 1;
#X msg 1399 297 0;
#X obj 737 440 phasor~;
#X msg 1590 286 100;
#X msg 1550 287 10;
#X msg 1655 288 0.4;
#X obj 1399 264 del 110;
#N canvas 584 29 616 410 filterbank 0;
#X obj 34 250 *~;
#X floatatom 49 222 5 0 0 0 - - -;
#X obj 34 111 lop~ 4000;
#X floatatom 223 91 5 0 0 0 - - -;
#X floatatom 262 92 5 0 0 0 - - -;
#X floatatom 84 81 5 0 0 0 - - -;
#X obj 381 114 hip~ 200;
#X floatatom 425 87 5 0 0 0 - - -;
#X obj 199 260 *~;
#X floatatom 216 236 5 0 0 0 - - -;
#X obj 379 249 *~;
#X floatatom 396 225 5 0 0 0 - - -;
#X obj 199 10 inlet~;
#X obj 175 354 outlet~;
#X obj 86 52 receive lopFreq;
#X obj 50 193 receive lopGain;
#X obj 425 61 receive hpFreq;
#X obj 397 197 receive hpGain;
#X obj 196 125 bp~ 200 10;
#X obj 268 31 inlet;
#X obj 324 129 inlet;
#X connect 0 0 13 0;
#X connect 1 0 0 1;
#X connect 2 0 0 0;
#X connect 3 0 18 1;
#X connect 4 0 18 2;
#X connect 5 0 2 1;
#X connect 6 0 10 0;
#X connect 7 0 6 1;
#X connect 8 0 13 0;
#X connect 9 0 8 1;
#X connect 10 0 13 0;
#X connect 11 0 10 1;
#X connect 12 0 2 0;
#X connect 12 0 6 0;
#X connect 12 0 18 0;
#X connect 14 0 5 0;
#X connect 15 0 1 0;
#X connect 16 0 7 0;
#X connect 17 0 11 0;
#X connect 18 0 8 0;
#X connect 19 0 3 0;
#X connect 20 0 9 0;
#X restore 816 702 pd filterbank;
#N canvas 94 110 740 599 reverb 0;
#X obj 156 195 inlet~;
#X obj 138 510 outlet~;
#X floatatom 438 302 0 0 120 0 - - -;
#X text 479 302 level \, dB;
#X floatatom 466 319 0 0 100 0 - - -;
#X text 507 319 liveness \, 0-100;
#X floatatom 501 343 4 0 5000 0 - - -;
#X floatatom 536 366 0 0 100 0 - - -;
#X text 549 341 crossover frequency \, Hz.;
#X text 572 368 HF damping \, percent;
#X obj 229 379 rev3~ 100 90 3000 20;
#X obj 241 477 *~;
#X floatatom 311 445 5 0 0 0 - - -;
#X obj 21 435 *~;
#X floatatom 60 407 5 0 0 0 - - -;
#X text 349 445 wet reverb signal;
#X text 97 410 "dry" signal;
#X floatatom 404 205 5 0 0 0 - - -;
#X obj 244 233 expr 1 - $f1;
#X obj 401 118 loadbang;
#X msg 403 149 0.2;
#X connect 0 0 13 0;
#X connect 0 0 10 0;
#X connect 2 0 10 2;
#X connect 4 0 10 3;
#X connect 6 0 10 4;
#X connect 7 0 10 5;
#X connect 10 0 11 0;
#X connect 10 1 11 0;
#X connect 10 2 11 0;
#X connect 10 3 11 0;
#X connect 11 0 1 0;
#X connect 12 0 11 1;
#X connect 13 0 1 0;
#X connect 14 0 13 1;
#X connect 17 0 12 0;
#X connect 17 0 18 0;
#X connect 18 0 14 0;
#X connect 19 0 20 0;
#X connect 20 0 17 0;
#X restore 839 785 pd reverb;
#X obj 1010 544 hsl 128 15 1000 4000 0 0 empty empty empty -2 -8 0
10 -262144 -1 -1 6350 1;
#X obj 1063 763 hsl 128 15 0 2 0 0 empty empty empty -2 -8 0 10 -262144
-1 -1 12700 1;
#X obj 1060 684 loadbang;
#X obj 1007 484 loadbang;
#X msg 1007 510 2500;
#X msg 1060 718 2;
#X text 1405 541 From in-class ADSR example;
#X text 682 732 From in-class LT Filter & reverb examples, f 18;
#X text 1007 458 Blue laser has higher bandpass frequency;
#X connect 0 0 26 0;
#X connect 2 0 21 0;
#X connect 2 0 18 0;
#X connect 4 0 14 5;
#X connect 5 0 14 4;
#X connect 6 0 14 3;
#X connect 7 0 14 1;
#X connect 8 0 14 2;
#X connect 14 0 0 1;
#X connect 15 0 7 0;
#X connect 16 0 15 0;
#X connect 16 0 24 0;
#X connect 17 0 14 0;
#X connect 18 0 19 0;
#X connect 18 0 25 0;
#X connect 19 0 17 0;
#X connect 20 0 17 0;
#X connect 21 0 0 0;
#X connect 22 0 6 0;
#X connect 23 0 8 0;
#X connect 24 0 5 0;
#X connect 25 0 20 0;
#X connect 26 0 27 0;
#X connect 27 0 1 0;
#X connect 28 0 26 1;
#X connect 29 0 26 2;
#X connect 30 0 33 0;
#X connect 31 0 32 0;
#X connect 32 0 28 0;
#X connect 33 0 29 0;
#X restore 808 733 pd blueLaserVoice;
#X text 659 525 Fades between "blip sound" (charging laser) and laser
sound (firing laser);
#X text 182 774 From in-class ADSR example;
#X text 421 788 "blip" sound is simple oscillator;
#X text 823 695 Laser sound uses laser-specific voide;
#X text 1152 752 Cross-fading mechanism triggers on switching between
firing/not firing;
#X connect 0 0 21 1;
#X connect 1 0 11 5;
#X connect 2 0 11 4;
#X connect 3 0 11 3;
#X connect 4 0 11 1;
#X connect 5 0 11 2;
#X connect 11 0 21 0;
#X connect 12 0 4 0;
#X connect 13 0 12 0;
#X connect 13 0 47 0;
#X connect 13 0 18 0;
#X connect 13 0 22 0;
#X connect 13 0 46 0;
#X connect 14 0 11 0;
#X connect 15 0 16 0;
#X connect 15 0 19 0;
#X connect 16 0 14 0;
#X connect 17 0 14 0;
#X connect 18 0 2 0;
#X connect 19 0 17 0;
#X connect 20 0 15 0;
#X connect 20 1 0 0;
#X connect 21 0 48 0;
#X connect 22 0 1 0;
#X connect 23 0 20 0;
#X connect 23 0 49 0;
#X connect 26 0 24 0;
#X connect 27 0 28 0;
#X connect 28 0 30 0;
#X connect 28 0 43 0;
#X connect 29 0 35 1;
#X connect 30 0 29 0;
#X connect 31 0 30 1;
#X connect 31 0 33 1;
#X connect 32 0 31 0;
#X connect 33 0 34 0;
#X connect 33 0 40 0;
#X connect 34 0 36 1;
#X connect 35 0 26 1;
#X connect 36 0 26 0;
#X connect 37 0 36 1;
#X connect 38 0 35 1;
#X connect 39 0 38 0;
#X connect 39 0 37 0;
#X connect 40 0 41 0;
#X connect 40 1 42 0;
#X connect 43 0 44 0;
#X connect 43 1 45 0;
#X connect 44 0 33 0;
#X connect 45 0 33 0;
#X connect 46 0 3 0;
#X connect 47 0 5 0;
#X connect 48 0 36 0;
#X connect 49 0 35 0;
#X restore 1777 850 pd laserShifter;
#X obj 1795 609 r osc_bluefire;
#X msg 1771 428 60 0 1 3 5 7 8 10;
#X obj 1770 390 r osc_blueaura;
#X obj 1907 388 r osc_yellowaura;
#X msg 1906 428 60 0 2 4 5 7 9 9;
#X obj 1873 882 loadbang;
#X obj 1772 915 *~;
#X msg 1862 911 0.3;
#X text 607 276 Yellow Laser Sounds;
#X text 2043 266 Blue Laser Sounds;
#X text 724 357 Picks two sequences to form a two-bar phrase, f 16
;
#X text 1539 312 Picks two sequences to form a two-bar phrase, f 16
;
#X text 1777 335 MIDI scales for yellow & blue (octave down), f 25
;
#X text 882 507 Picks MIDI notes for sequence using scale;
#X text 1738 510 Picks MIDI notes for sequence using scale;
#X text 863 609 Store laser note & wait for signal from Unity to sound/fire
, f 38;
#X text 1606 -59 Toggle transition between blue/yellow, f 20;
#X obj 1293 754 s testSignal;
#X obj 7 420 cnv 15 575 600 empty empty Test_Area 20 12 0 14 -233017
-66577 0;
#X obj 112 513 r testSignal;
#X obj 108 579 unpack 0 0 0;
#X obj 146 642 select 0;
#X obj 233 642 select 0;
#X obj 132 547 print;
#X obj 194 688 s osc_bluefire;
#X obj 311 689 s osc_yellowfire;
#X obj 171 608 *;
#X obj 233 608 *;
#X obj 241 473 tgl 15 0 empty empty empty 17 7 0 10 -262144 -1 -1 0
1;
#X text 225 426 Turn on test mode, f 12;
#X obj 342 554 s osc_aurastate;
#X obj 130 756 tgl 15 0 empty empty empty 17 7 0 10 -262144 -1 -1 0
1;
#X obj 130 788 select 0 1;
#X obj 129 842 s osc_blueaura;
#X obj 160 815 s osc_yellowaura;
#X obj 312 750 tgl 15 0 empty empty empty 17 7 0 10 -262144 -1 -1 0
1;
#X obj 310 811 s osc_firestate;
#X text 11 762 Toggle yellow/blue bckgd music & scales, f 16;
#X text 332 767 Toggle laser/blip sound;
#X obj 342 503 tgl 15 0 empty empty empty 17 7 0 10 -262144 -1 -1 0
1;
#X text 383 485 Turn on to reshuffle melodies/hear gravity sound,
f 18;
#X obj 92 885 tgl 15 0 empty empty empty 17 7 0 10 -262144 -1 -1 0
1;
#X obj 92 917 select 0 1;
#X obj 122 944 s osc_rocket;
#X obj 91 971 s osc_norocket;
#X text 227 914 Toggle rocket sound;
#X obj 241 529 s osc_start;
#X text 28 439 mimicks Unity sending/receiving signals, f 20;
#X msg 1284 25 0;
#X obj 1284 51 s osc_firestate;
#X text 1060 333 MIDI tonic note & scale degrees for yellow & blue
(octave up), f 25;
#X text 602 720 2 Unity responds to the metronome signal with a "yellowfire"
or "bluefire" message if it has yellow/blue values stored in corresponding
positions in its arrays. We mimmick Unity responding to the metronome
signal with a fire signal in the Test Area., f 26;
#X text 1282 445 1 Gather yellow & blue notes & send a message to store
notes in an array in Unity(32 slots corresponding to metronome position)
, f 34;
#X connect 2 0 4 0;
#X connect 4 0 7 0;
#X connect 5 0 4 0;
#X connect 8 0 9 0;
#X connect 10 0 59 0;
#X connect 10 0 71 0;
#X connect 11 0 10 0;
#X connect 13 0 14 0;
#X connect 14 0 12 0;
#X connect 16 0 17 0;
#X connect 16 0 49 0;
#X connect 16 0 70 0;
#X connect 17 0 14 0;
#X connect 17 0 99 0;
#X connect 18 0 16 0;
#X connect 18 0 38 0;
#X connect 18 0 130 0;
#X connect 19 0 18 0;
#X connect 21 0 25 0;
#X connect 23 0 24 0;
#X connect 24 0 25 1;
#X connect 25 0 22 0;
#X connect 25 0 22 1;
#X connect 28 0 32 0;
#X connect 30 0 31 0;
#X connect 31 0 32 1;
#X connect 32 0 29 0;
#X connect 32 0 29 1;
#X connect 38 0 46 0;
#X connect 39 0 43 0;
#X connect 40 0 42 0;
#X connect 42 0 38 1;
#X connect 43 0 38 2;
#X connect 44 0 45 0;
#X connect 45 0 46 1;
#X connect 46 0 41 0;
#X connect 46 0 41 1;
#X connect 49 0 53 1;
#X connect 49 1 53 0;
#X connect 49 1 17 2;
#X connect 50 0 55 1;
#X connect 52 0 58 0;
#X connect 53 0 54 0;
#X connect 54 0 50 0;
#X connect 54 1 50 0;
#X connect 55 0 52 0;
#X connect 57 0 55 0;
#X connect 58 0 67 0;
#X connect 59 0 60 0;
#X connect 60 0 49 1;
#X connect 60 1 49 2;
#X connect 61 0 57 0;
#X connect 61 0 56 0;
#X connect 62 0 49 3;
#X connect 63 0 62 0;
#X connect 64 0 65 0;
#X connect 65 0 49 3;
#X connect 66 0 68 0;
#X connect 67 0 51 0;
#X connect 67 0 51 1;
#X connect 68 0 67 1;
#X connect 70 0 76 1;
#X connect 70 1 76 0;
#X connect 70 1 17 1;
#X connect 71 0 72 0;
#X connect 72 0 70 1;
#X connect 72 1 70 2;
#X connect 73 0 78 1;
#X connect 75 0 81 0;
#X connect 76 0 77 0;
#X connect 77 0 73 0;
#X connect 77 1 73 0;
#X connect 78 0 75 0;
#X connect 80 0 78 0;
#X connect 81 0 88 0;
#X connect 82 0 80 0;
#X connect 82 0 79 0;
#X connect 83 0 70 3;
#X connect 84 0 83 0;
#X connect 85 0 86 0;
#X connect 86 0 70 3;
#X connect 87 0 89 0;
#X connect 88 0 74 0;
#X connect 88 0 74 1;
#X connect 89 0 88 1;
#X connect 101 0 102 0;
#X connect 101 0 105 0;
#X connect 102 1 108 0;
#X connect 102 2 109 0;
#X connect 103 1 106 0;
#X connect 104 1 107 0;
#X connect 108 0 103 0;
#X connect 109 0 104 0;
#X connect 110 0 108 1;
#X connect 110 0 109 1;
#X connect 110 0 128 0;
#X connect 113 0 114 0;
#X connect 114 0 115 0;
#X connect 114 1 116 0;
#X connect 117 0 118 0;
#X connect 121 0 112 0;
#X connect 123 0 124 0;
#X connect 124 0 126 0;
#X connect 124 1 125 0;
#X connect 130 0 131 0;
