#N canvas 89 -9 1822 1026 12;
#X floatatom 1285 598 5 0 0 0 - - -;
#X floatatom 1266 569 5 0 0 0 - - -;
#X floatatom 1249 544 5 0 0 0 - - -;
#X floatatom 1214 497 5 0 0 0 - - -;
#X floatatom 1232 522 5 0 0 0 - - -;
#X text 1252 495 peak level;
#X text 1273 517 attack duration (ms);
#X text 1287 539 decay duration (ms);
#X text 1307 565 sustain level (% of peak);
#X text 1319 595 release duration (ms);
#N canvas 251 52 707 458 envelope_adsr 0;
#X obj 209 53 moses;
#X obj 112 56 inlet;
#X obj 112 92 sel 0;
#X msg 111 130 stop;
#X obj 209 93 t b b;
#X obj 258 125 t b;
#X obj 174 209 f \$1;
#X obj 174 245 pack 0 \$2;
#X msg 125 245 0;
#X obj 337 145 inlet;
#X obj 377 145 inlet;
#X obj 421 145 inlet;
#X obj 461 145 inlet;
#X obj 314 239 del \$2;
#X obj 314 265 f \$4;
#X obj 390 268 * \$1;
#X obj 389 299 pack 0 \$3;
#X obj 472 301 pack 0 \$5;
#X obj 518 269 inlet;
#X obj 354 358 line~;
#X obj 354 386 outlet~;
#X obj 313 299 * 0.5;
#X connect 0 0 4 0;
#X connect 0 1 5 0;
#X connect 1 0 2 0;
#X connect 2 0 3 0;
#X connect 2 0 17 0;
#X connect 2 1 0 0;
#X connect 3 0 13 0;
#X connect 4 0 5 0;
#X connect 4 1 8 0;
#X connect 5 0 6 0;
#X connect 5 0 13 0;
#X connect 6 0 7 0;
#X connect 7 0 19 0;
#X connect 8 0 19 0;
#X connect 9 0 15 1;
#X connect 9 0 6 1;
#X connect 10 0 13 1;
#X connect 10 0 7 1;
#X connect 11 0 16 1;
#X connect 12 0 14 1;
#X connect 13 0 14 0;
#X connect 14 0 21 0;
#X connect 15 0 16 0;
#X connect 16 0 19 0;
#X connect 17 0 19 0;
#X connect 18 0 17 1;
#X connect 19 0 20 0;
#X connect 21 0 15 0;
#X restore 1191 636 pd envelope_adsr;
#X msg 1294 451 1;
#X obj 1301 408 loadbang;
#X obj 1165 535 tgl 15 0 empty empty empty 17 7 0 10 -262144 -1 -1
0 1;
#X obj 1172 417 bng 15 250 50 0 empty empty empty 17 7 0 10 -262144
-1 -1;
#X msg 1143 493 1;
#X msg 1175 493 0;
#X msg 1364 453 1;
#X msg 1411 451 1;
#X obj 1175 460 del 100;
#X obj 790 647 t b f;
#X obj 807 773 *~;
#X msg 1331 451 20;
#X msg 1454 453 20;
#X obj 832 710 phasor~;
#X msg 790 476 60;
#X obj 800 863 dac~;
#X obj 47 36 tgl 15 0 empty empty empty 17 7 0 10 -262144 -1 -1 1 1
;
#X msg 47 61 \; pd dsp \$1;
#X obj 790 574 mtof;
#X connect 0 0 10 5;
#X connect 1 0 10 4;
#X connect 2 0 10 3;
#X connect 3 0 10 1;
#X connect 4 0 10 2;
#X connect 10 0 21 0;
#X connect 11 0 3 0;
#X connect 12 0 11 0;
#X connect 12 0 22 0;
#X connect 12 0 18 0;
#X connect 12 0 23 0;
#X connect 12 0 17 0;
#X connect 13 0 10 0;
#X connect 14 0 15 0;
#X connect 14 0 19 0;
#X connect 14 0 25 0;
#X connect 15 0 13 0;
#X connect 16 0 13 0;
#X connect 17 0 2 0;
#X connect 18 0 1 0;
#X connect 19 0 16 0;
#X connect 20 0 14 0;
#X connect 20 1 24 0;
#X connect 21 0 26 0;
#X connect 21 0 26 1;
#X connect 22 0 4 0;
#X connect 23 0 0 0;
#X connect 24 0 21 1;
#X connect 25 0 29 0;
#X connect 27 0 28 0;
#X connect 29 0 20 0;
