#N canvas 89 -9 1822 1026 12;
#X obj 978 5 tgl 15 0 empty empty empty 17 7 0 10 -262144 -1 -1 0 1
;
#X obj 588 136 tgl 15 0 empty empty empty 17 7 0 10 -262144 -1 -1 0
1;
#X msg 588 185 \; pd dsp \$1;
#X obj 1067 713 +;
#X obj 1075 868 mtof;
#X obj 912 1003 *~;
#X obj 917 1075 dac~;
#X obj 1072 945 hsl 128 15 0 1 0 0 empty empty empty -2 -8 0 10 -262144
-1 -1 9300 1;
#X obj 906 926 osc~;
#X obj 990 90 f;
#X obj 1034 91 + 1;
#X floatatom 800 169 5 0 0 0 - - -;
#X floatatom 904 824 5 0 0 0 - - -;
#X floatatom 947 322 5 0 0 0 - - -;
#X floatatom 990 322 5 0 0 0 - - -;
#X floatatom 1045 319 5 0 0 0 - - -;
#X floatatom 1101 324 5 0 0 0 - - -;
#X floatatom 1155 319 5 0 0 0 - - -;
#X floatatom 1209 323 5 0 0 0 - - -;
#X floatatom 1260 326 5 0 0 0 - - -;
#X floatatom 1309 326 5 0 0 0 - - -;
#X obj 366 237 tgl 15 0 empty empty empty 17 7 0 10 -262144 -1 -1 0
1;
#X obj 291 239 bng 15 250 50 0 empty empty empty 17 7 0 10 -262144
-1 -1;
#N canvas 262 151 699 624 chargeStore 0;
#X obj 264 290 max 0;
#X obj 264 318 min 2;
#X obj 260 132 select 0 1;
#X obj 249 260 + 0;
#X msg 280 183 -1;
#X msg 337 186 1;
#X obj 196 394 f 0;
#X obj 260 82 inlet;
#X obj 124 183 inlet;
#X obj 273 425 outlet;
#X connect 0 0 1 0;
#X connect 1 0 6 1;
#X connect 1 0 9 0;
#X connect 2 0 4 0;
#X connect 2 1 5 0;
#X connect 3 0 0 0;
#X connect 4 0 3 1;
#X connect 5 0 3 1;
#X connect 6 0 3 0;
#X connect 7 0 2 0;
#X connect 8 0 6 0;
#X restore 290 334 pd chargeStore;
#X obj 315 440 print;
#X obj 1576 446 tgl 15 0 empty empty empty 17 7 0 10 -262144 -1 -1
1 1;
#N canvas 405 124 780 601 c 0;
#X obj 264 290 max 0;
#X obj 264 318 min 2;
#X obj 260 132 select 0 1;
#X obj 249 260 + 0;
#X msg 280 183 -1;
#X msg 337 186 1;
#X obj 196 394 f 0;
#X obj 124 183 inlet;
#X obj 303 365 select 0;
#X obj 260 82 r chargeState;
#X obj 163 332 bng 15 250 50 0 empty empty empty 17 7 0 10 -262144
-1 -1;
#X obj 351 477 outlet;
#X obj 302 436 +;
#X msg 347 401 0;
#X obj 99 271 select 0;
#X connect 0 0 1 0;
#X connect 1 0 6 1;
#X connect 1 0 8 0;
#X connect 2 0 4 0;
#X connect 2 1 5 0;
#X connect 3 0 0 0;
#X connect 4 0 3 1;
#X connect 5 0 3 1;
#X connect 6 0 3 0;
#X connect 7 0 12 1;
#X connect 7 0 14 0;
#X connect 8 1 13 0;
#X connect 9 0 2 0;
#X connect 10 0 6 0;
#X connect 12 0 11 0;
#X connect 13 0 12 0;
#X connect 14 1 10 0;
#X restore 948 362 pd c;
#X obj 1576 466 s chargeState;
#X obj 988 50 metro 250;
#X obj 1213 204 unpack 0 0 0 0;
#X obj 1381 211 unpack 0 0 0 0;
#X obj 1535 206 unpack 0 0 0 0;
#X floatatom 1359 324 5 0 0 0 - - -;
#X floatatom 1403 319 5 0 0 0 - - -;
#X floatatom 1457 321 5 0 0 0 - - -;
#X floatatom 1513 326 5 0 0 0 - - -;
#X floatatom 1567 324 5 0 0 0 - - -;
#X floatatom 1621 325 5 0 0 0 - - -;
#X floatatom 1672 328 5 0 0 0 - - -;
#X floatatom 1721 328 5 0 0 0 - - -;
#X obj 599 387 clone;
#N canvas 405 124 780 601 c 0;
#X obj 264 290 max 0;
#X obj 264 318 min 2;
#X obj 260 132 select 0 1;
#X obj 249 260 + 0;
#X msg 280 183 -1;
#X msg 337 186 1;
#X obj 196 394 f 0;
#X obj 124 183 inlet;
#X obj 303 365 select 0;
#X obj 260 82 r chargeState;
#X obj 99 271 select -2;
#X obj 163 332 bng 15 250 50 0 empty empty empty 17 7 0 10 -262144
-1 -1;
#X obj 351 477 outlet;
#X obj 302 436 +;
#X msg 347 401 0;
#X connect 0 0 1 0;
#X connect 1 0 6 1;
#X connect 1 0 8 0;
#X connect 2 0 4 0;
#X connect 2 1 5 0;
#X connect 3 0 0 0;
#X connect 4 0 3 1;
#X connect 5 0 3 1;
#X connect 6 0 3 0;
#X connect 7 0 10 0;
#X connect 7 0 13 1;
#X connect 8 1 14 0;
#X connect 9 0 2 0;
#X connect 10 1 11 0;
#X connect 11 0 6 0;
#X connect 13 0 12 0;
#X connect 14 0 13 0;
#X restore 993 361 pd c;
#N canvas 405 124 780 601 c 0;
#X obj 264 290 max 0;
#X obj 264 318 min 2;
#X obj 260 132 select 0 1;
#X obj 249 260 + 0;
#X msg 280 183 -1;
#X msg 337 186 1;
#X obj 196 394 f 0;
#X obj 124 183 inlet;
#X obj 303 365 select 0;
#X obj 260 82 r chargeState;
#X obj 99 271 select -2;
#X obj 163 332 bng 15 250 50 0 empty empty empty 17 7 0 10 -262144
-1 -1;
#X obj 351 477 outlet;
#X obj 302 436 +;
#X msg 347 401 0;
#X connect 0 0 1 0;
#X connect 1 0 6 1;
#X connect 1 0 8 0;
#X connect 2 0 4 0;
#X connect 2 1 5 0;
#X connect 3 0 0 0;
#X connect 4 0 3 1;
#X connect 5 0 3 1;
#X connect 6 0 3 0;
#X connect 7 0 10 0;
#X connect 7 0 13 1;
#X connect 8 1 14 0;
#X connect 9 0 2 0;
#X connect 10 1 11 0;
#X connect 11 0 6 0;
#X connect 13 0 12 0;
#X connect 14 0 13 0;
#X restore 1046 360 pd c;
#N canvas 405 124 780 601 c 0;
#X obj 264 290 max 0;
#X obj 264 318 min 2;
#X obj 260 132 select 0 1;
#X obj 249 260 + 0;
#X msg 280 183 -1;
#X msg 337 186 1;
#X obj 196 394 f 0;
#X obj 124 183 inlet;
#X obj 303 365 select 0;
#X obj 260 82 r chargeState;
#X obj 99 271 select -2;
#X obj 163 332 bng 15 250 50 0 empty empty empty 17 7 0 10 -262144
-1 -1;
#X obj 351 477 outlet;
#X obj 302 436 +;
#X msg 347 401 0;
#X connect 0 0 1 0;
#X connect 1 0 6 1;
#X connect 1 0 8 0;
#X connect 2 0 4 0;
#X connect 2 1 5 0;
#X connect 3 0 0 0;
#X connect 4 0 3 1;
#X connect 5 0 3 1;
#X connect 6 0 3 0;
#X connect 7 0 10 0;
#X connect 7 0 13 1;
#X connect 8 1 14 0;
#X connect 9 0 2 0;
#X connect 10 1 11 0;
#X connect 11 0 6 0;
#X connect 13 0 12 0;
#X connect 14 0 13 0;
#X restore 1103 362 pd c;
#N canvas 405 124 780 601 c 0;
#X obj 264 290 max 0;
#X obj 264 318 min 2;
#X obj 260 132 select 0 1;
#X obj 249 260 + 0;
#X msg 280 183 -1;
#X msg 337 186 1;
#X obj 196 394 f 0;
#X obj 124 183 inlet;
#X obj 303 365 select 0;
#X obj 260 82 r chargeState;
#X obj 99 271 select -2;
#X obj 163 332 bng 15 250 50 0 empty empty empty 17 7 0 10 -262144
-1 -1;
#X obj 351 477 outlet;
#X obj 302 436 +;
#X msg 347 401 0;
#X connect 0 0 1 0;
#X connect 1 0 6 1;
#X connect 1 0 8 0;
#X connect 2 0 4 0;
#X connect 2 1 5 0;
#X connect 3 0 0 0;
#X connect 4 0 3 1;
#X connect 5 0 3 1;
#X connect 6 0 3 0;
#X connect 7 0 10 0;
#X connect 7 0 13 1;
#X connect 8 1 14 0;
#X connect 9 0 2 0;
#X connect 10 1 11 0;
#X connect 11 0 6 0;
#X connect 13 0 12 0;
#X connect 14 0 13 0;
#X restore 1151 364 pd c;
#N canvas 405 124 780 601 c 0;
#X obj 264 290 max 0;
#X obj 264 318 min 2;
#X obj 260 132 select 0 1;
#X obj 249 260 + 0;
#X msg 280 183 -1;
#X msg 337 186 1;
#X obj 196 394 f 0;
#X obj 124 183 inlet;
#X obj 303 365 select 0;
#X obj 260 82 r chargeState;
#X obj 99 271 select -2;
#X obj 163 332 bng 15 250 50 0 empty empty empty 17 7 0 10 -262144
-1 -1;
#X obj 351 477 outlet;
#X obj 302 436 +;
#X msg 347 401 0;
#X connect 0 0 1 0;
#X connect 1 0 6 1;
#X connect 1 0 8 0;
#X connect 2 0 4 0;
#X connect 2 1 5 0;
#X connect 3 0 0 0;
#X connect 4 0 3 1;
#X connect 5 0 3 1;
#X connect 6 0 3 0;
#X connect 7 0 10 0;
#X connect 7 0 13 1;
#X connect 8 1 14 0;
#X connect 9 0 2 0;
#X connect 10 1 11 0;
#X connect 11 0 6 0;
#X connect 13 0 12 0;
#X connect 14 0 13 0;
#X restore 1214 364 pd c;
#N canvas 405 124 780 601 c 0;
#X obj 264 290 max 0;
#X obj 264 318 min 2;
#X obj 260 132 select 0 1;
#X obj 249 260 + 0;
#X msg 280 183 -1;
#X msg 337 186 1;
#X obj 196 394 f 0;
#X obj 124 183 inlet;
#X obj 303 365 select 0;
#X obj 260 82 r chargeState;
#X obj 99 271 select -2;
#X obj 163 332 bng 15 250 50 0 empty empty empty 17 7 0 10 -262144
-1 -1;
#X obj 351 477 outlet;
#X obj 302 436 +;
#X msg 347 401 0;
#X connect 0 0 1 0;
#X connect 1 0 6 1;
#X connect 1 0 8 0;
#X connect 2 0 4 0;
#X connect 2 1 5 0;
#X connect 3 0 0 0;
#X connect 4 0 3 1;
#X connect 5 0 3 1;
#X connect 6 0 3 0;
#X connect 7 0 10 0;
#X connect 7 0 13 1;
#X connect 8 1 14 0;
#X connect 9 0 2 0;
#X connect 10 1 11 0;
#X connect 11 0 6 0;
#X connect 13 0 12 0;
#X connect 14 0 13 0;
#X restore 1263 363 pd c;
#N canvas 405 124 780 601 c 0;
#X obj 264 290 max 0;
#X obj 264 318 min 2;
#X obj 260 132 select 0 1;
#X obj 249 260 + 0;
#X msg 280 183 -1;
#X msg 337 186 1;
#X obj 196 394 f 0;
#X obj 124 183 inlet;
#X obj 303 365 select 0;
#X obj 260 82 r chargeState;
#X obj 99 271 select -2;
#X obj 163 332 bng 15 250 50 0 empty empty empty 17 7 0 10 -262144
-1 -1;
#X obj 351 477 outlet;
#X obj 302 436 +;
#X msg 347 401 0;
#X connect 0 0 1 0;
#X connect 1 0 6 1;
#X connect 1 0 8 0;
#X connect 2 0 4 0;
#X connect 2 1 5 0;
#X connect 3 0 0 0;
#X connect 4 0 3 1;
#X connect 5 0 3 1;
#X connect 6 0 3 0;
#X connect 7 0 10 0;
#X connect 7 0 13 1;
#X connect 8 1 14 0;
#X connect 9 0 2 0;
#X connect 10 1 11 0;
#X connect 11 0 6 0;
#X connect 13 0 12 0;
#X connect 14 0 13 0;
#X restore 1310 365 pd c;
#N canvas 405 124 780 601 c 0;
#X obj 264 290 max 0;
#X obj 264 318 min 2;
#X obj 260 132 select 0 1;
#X obj 249 260 + 0;
#X msg 280 183 -1;
#X msg 337 186 1;
#X obj 196 394 f 0;
#X obj 124 183 inlet;
#X obj 303 365 select 0;
#X obj 260 82 r chargeState;
#X obj 99 271 select -2;
#X obj 163 332 bng 15 250 50 0 empty empty empty 17 7 0 10 -262144
-1 -1;
#X obj 351 477 outlet;
#X obj 302 436 +;
#X msg 347 401 0;
#X connect 0 0 1 0;
#X connect 1 0 6 1;
#X connect 1 0 8 0;
#X connect 2 0 4 0;
#X connect 2 1 5 0;
#X connect 3 0 0 0;
#X connect 4 0 3 1;
#X connect 5 0 3 1;
#X connect 6 0 3 0;
#X connect 7 0 10 0;
#X connect 7 0 13 1;
#X connect 8 1 14 0;
#X connect 9 0 2 0;
#X connect 10 1 11 0;
#X connect 11 0 6 0;
#X connect 13 0 12 0;
#X connect 14 0 13 0;
#X restore 1354 360 pd c;
#N canvas 405 124 780 601 c 0;
#X obj 264 290 max 0;
#X obj 264 318 min 2;
#X obj 260 132 select 0 1;
#X obj 249 260 + 0;
#X msg 280 183 -1;
#X msg 337 186 1;
#X obj 196 394 f 0;
#X obj 124 183 inlet;
#X obj 303 365 select 0;
#X obj 260 82 r chargeState;
#X obj 99 271 select -2;
#X obj 163 332 bng 15 250 50 0 empty empty empty 17 7 0 10 -262144
-1 -1;
#X obj 351 477 outlet;
#X obj 302 436 +;
#X msg 347 401 0;
#X connect 0 0 1 0;
#X connect 1 0 6 1;
#X connect 1 0 8 0;
#X connect 2 0 4 0;
#X connect 2 1 5 0;
#X connect 3 0 0 0;
#X connect 4 0 3 1;
#X connect 5 0 3 1;
#X connect 6 0 3 0;
#X connect 7 0 10 0;
#X connect 7 0 13 1;
#X connect 8 1 14 0;
#X connect 9 0 2 0;
#X connect 10 1 11 0;
#X connect 11 0 6 0;
#X connect 13 0 12 0;
#X connect 14 0 13 0;
#X restore 1408 358 pd c;
#N canvas 405 124 780 601 c 0;
#X obj 264 290 max 0;
#X obj 264 318 min 2;
#X obj 260 132 select 0 1;
#X obj 249 260 + 0;
#X msg 280 183 -1;
#X msg 337 186 1;
#X obj 196 394 f 0;
#X obj 124 183 inlet;
#X obj 303 365 select 0;
#X obj 260 82 r chargeState;
#X obj 99 271 select -2;
#X obj 163 332 bng 15 250 50 0 empty empty empty 17 7 0 10 -262144
-1 -1;
#X obj 351 477 outlet;
#X obj 302 436 +;
#X msg 347 401 0;
#X connect 0 0 1 0;
#X connect 1 0 6 1;
#X connect 1 0 8 0;
#X connect 2 0 4 0;
#X connect 2 1 5 0;
#X connect 3 0 0 0;
#X connect 4 0 3 1;
#X connect 5 0 3 1;
#X connect 6 0 3 0;
#X connect 7 0 10 0;
#X connect 7 0 13 1;
#X connect 8 1 14 0;
#X connect 9 0 2 0;
#X connect 10 1 11 0;
#X connect 11 0 6 0;
#X connect 13 0 12 0;
#X connect 14 0 13 0;
#X restore 1460 360 pd c;
#N canvas 405 124 780 601 c 0;
#X obj 264 290 max 0;
#X obj 264 318 min 2;
#X obj 260 132 select 0 1;
#X obj 249 260 + 0;
#X msg 280 183 -1;
#X msg 337 186 1;
#X obj 196 394 f 0;
#X obj 124 183 inlet;
#X obj 303 365 select 0;
#X obj 260 82 r chargeState;
#X obj 99 271 select -2;
#X obj 163 332 bng 15 250 50 0 empty empty empty 17 7 0 10 -262144
-1 -1;
#X obj 351 477 outlet;
#X obj 302 436 +;
#X msg 347 401 0;
#X connect 0 0 1 0;
#X connect 1 0 6 1;
#X connect 1 0 8 0;
#X connect 2 0 4 0;
#X connect 2 1 5 0;
#X connect 3 0 0 0;
#X connect 4 0 3 1;
#X connect 5 0 3 1;
#X connect 6 0 3 0;
#X connect 7 0 10 0;
#X connect 7 0 13 1;
#X connect 8 1 14 0;
#X connect 9 0 2 0;
#X connect 10 1 11 0;
#X connect 11 0 6 0;
#X connect 13 0 12 0;
#X connect 14 0 13 0;
#X restore 1517 361 pd c;
#N canvas 405 124 780 601 c 0;
#X obj 264 290 max 0;
#X obj 264 318 min 2;
#X obj 260 132 select 0 1;
#X obj 249 260 + 0;
#X msg 280 183 -1;
#X msg 337 186 1;
#X obj 196 394 f 0;
#X obj 124 183 inlet;
#X obj 303 365 select 0;
#X obj 260 82 r chargeState;
#X obj 99 271 select -2;
#X obj 163 332 bng 15 250 50 0 empty empty empty 17 7 0 10 -262144
-1 -1;
#X obj 351 477 outlet;
#X obj 302 436 +;
#X msg 347 401 0;
#X connect 0 0 1 0;
#X connect 1 0 6 1;
#X connect 1 0 8 0;
#X connect 2 0 4 0;
#X connect 2 1 5 0;
#X connect 3 0 0 0;
#X connect 4 0 3 1;
#X connect 5 0 3 1;
#X connect 6 0 3 0;
#X connect 7 0 10 0;
#X connect 7 0 13 1;
#X connect 8 1 14 0;
#X connect 9 0 2 0;
#X connect 10 1 11 0;
#X connect 11 0 6 0;
#X connect 13 0 12 0;
#X connect 14 0 13 0;
#X restore 1568 365 pd c;
#N canvas 405 124 780 601 c 0;
#X obj 264 290 max 0;
#X obj 264 318 min 2;
#X obj 260 132 select 0 1;
#X obj 249 260 + 0;
#X msg 280 183 -1;
#X msg 337 186 1;
#X obj 196 394 f 0;
#X obj 124 183 inlet;
#X obj 303 365 select 0;
#X obj 260 82 r chargeState;
#X obj 99 271 select -2;
#X obj 163 332 bng 15 250 50 0 empty empty empty 17 7 0 10 -262144
-1 -1;
#X obj 351 477 outlet;
#X obj 302 436 +;
#X msg 347 401 0;
#X connect 0 0 1 0;
#X connect 1 0 6 1;
#X connect 1 0 8 0;
#X connect 2 0 4 0;
#X connect 2 1 5 0;
#X connect 3 0 0 0;
#X connect 4 0 3 1;
#X connect 5 0 3 1;
#X connect 6 0 3 0;
#X connect 7 0 10 0;
#X connect 7 0 13 1;
#X connect 8 1 14 0;
#X connect 9 0 2 0;
#X connect 10 1 11 0;
#X connect 11 0 6 0;
#X connect 13 0 12 0;
#X connect 14 0 13 0;
#X restore 1626 368 pd c;
#N canvas 405 124 780 601 c 0;
#X obj 264 290 max 0;
#X obj 264 318 min 2;
#X obj 260 132 select 0 1;
#X obj 249 260 + 0;
#X msg 280 183 -1;
#X msg 337 186 1;
#X obj 196 394 f 0;
#X obj 124 183 inlet;
#X obj 303 365 select 0;
#X obj 260 82 r chargeState;
#X obj 99 271 select -2;
#X obj 163 332 bng 15 250 50 0 empty empty empty 17 7 0 10 -262144
-1 -1;
#X obj 351 477 outlet;
#X obj 302 436 +;
#X msg 347 401 0;
#X connect 0 0 1 0;
#X connect 1 0 6 1;
#X connect 1 0 8 0;
#X connect 2 0 4 0;
#X connect 2 1 5 0;
#X connect 3 0 0 0;
#X connect 4 0 3 1;
#X connect 5 0 3 1;
#X connect 6 0 3 0;
#X connect 7 0 10 0;
#X connect 7 0 13 1;
#X connect 8 1 14 0;
#X connect 9 0 2 0;
#X connect 10 1 11 0;
#X connect 11 0 6 0;
#X connect 13 0 12 0;
#X connect 14 0 13 0;
#X restore 1675 369 pd c;
#N canvas 405 124 780 601 c 0;
#X obj 264 290 max 0;
#X obj 264 318 min 2;
#X obj 260 132 select 0 1;
#X obj 249 260 + 0;
#X msg 280 183 -1;
#X msg 337 186 1;
#X obj 196 394 f 0;
#X obj 124 183 inlet;
#X obj 303 365 select 0;
#X obj 260 82 r chargeState;
#X obj 99 271 select -2;
#X obj 163 332 bng 15 250 50 0 empty empty empty 17 7 0 10 -262144
-1 -1;
#X obj 351 477 outlet;
#X obj 302 436 +;
#X msg 347 401 0;
#X connect 0 0 1 0;
#X connect 1 0 6 1;
#X connect 1 0 8 0;
#X connect 2 0 4 0;
#X connect 2 1 5 0;
#X connect 3 0 0 0;
#X connect 4 0 3 1;
#X connect 5 0 3 1;
#X connect 6 0 3 0;
#X connect 7 0 10 0;
#X connect 7 0 13 1;
#X connect 8 1 14 0;
#X connect 9 0 2 0;
#X connect 10 1 11 0;
#X connect 11 0 6 0;
#X connect 13 0 12 0;
#X connect 14 0 13 0;
#X restore 1723 371 pd c;
#X obj 1014 124 mod 16;
#X obj 1317 678 loadbang;
#X floatatom 599 847 5 0 0 0 - - -;
#X floatatom 580 818 5 0 0 0 - - -;
#X floatatom 563 793 5 0 0 0 - - -;
#X floatatom 528 746 5 0 0 0 - - -;
#X floatatom 546 771 5 0 0 0 - - -;
#X text 566 744 peak level;
#X text 587 766 attack duration (ms);
#X text 601 788 decay duration (ms);
#X text 621 814 sustain level (% of peak);
#X text 633 844 release duration (ms);
#N canvas 251 52 707 458 envelope_adsr 0;
#X obj 209 53 moses;
#X obj 112 56 inlet;
#X obj 112 92 sel 0;
#X msg 111 130 stop;
#X obj 209 93 t b b;
#X obj 258 125 t b;
#X obj 174 209 f \$1;
#X obj 174 245 pack 0 \$2;
#X msg 125 245 0;
#X obj 337 145 inlet;
#X obj 377 145 inlet;
#X obj 421 145 inlet;
#X obj 461 145 inlet;
#X obj 314 239 del \$2;
#X obj 314 265 f \$4;
#X obj 390 268 * \$1;
#X obj 389 299 pack 0 \$3;
#X obj 472 301 pack 0 \$5;
#X obj 518 269 inlet;
#X obj 354 358 line~;
#X obj 354 386 outlet~;
#X obj 313 299 * 0.5;
#X connect 0 0 4 0;
#X connect 0 1 5 0;
#X connect 1 0 2 0;
#X connect 2 0 3 0;
#X connect 2 0 17 0;
#X connect 2 1 0 0;
#X connect 3 0 13 0;
#X connect 4 0 5 0;
#X connect 4 1 8 0;
#X connect 5 0 6 0;
#X connect 5 0 13 0;
#X connect 6 0 7 0;
#X connect 7 0 19 0;
#X connect 8 0 19 0;
#X connect 9 0 15 1;
#X connect 9 0 6 1;
#X connect 10 0 13 1;
#X connect 10 0 7 1;
#X connect 11 0 16 1;
#X connect 12 0 14 1;
#X connect 13 0 14 0;
#X connect 14 0 21 0;
#X connect 15 0 16 0;
#X connect 16 0 19 0;
#X connect 17 0 19 0;
#X connect 18 0 17 1;
#X connect 19 0 20 0;
#X connect 21 0 15 0;
#X restore 505 885 pd envelope_adsr;
#X msg 608 700 1;
#X obj 615 657 loadbang;
#X obj 479 784 tgl 15 0 empty empty empty 17 7 0 10 -262144 -1 -1 0
1;
#X obj 486 666 bng 15 250 50 0 empty empty empty 17 7 0 10 -262144
-1 -1;
#X msg 457 742 1;
#X msg 489 742 0;
#X msg 678 702 1;
#X msg 725 700 1;
#X obj 489 709 del 100;
#X obj 933 871 t b f;
#X obj 906 966 *~;
#X msg 645 700 20;
#X msg 768 702 20;
#X obj 800 217 select 0 1 2 3 4 5 6 7 8 9 10 11 12 13 14 15;
#X msg 788 345 -12;
#X obj 1137 416 select -1 1;
#X msg 1397 144 -1 1 -1 1;
#X msg 1541 143 -1 0 1 0;
#X msg 1234 138 1 1 0 1;
#X obj 419 144 osc~;
#X obj 392 101 mtof;
#X obj 323 64 + 60;
#X obj 423 219 dac~;
#X obj 478 180 *~;
#X obj 492 59 hsl 128 15 0 1 0 0 empty empty empty -2 -8 0 10 -262144
-1 -1 0 1;
#X msg 1352 485 60 2 5 9 11 0 4 7, f 21;
#X obj 1347 530 unpack 0 0 0 0 0 0 0 0;
#X floatatom 1023 599 5 0 0 0 - - -;
#X floatatom 1075 600 5 0 0 0 - - -;
#X floatatom 1133 599 5 0 0 0 - - -;
#X floatatom 1193 598 5 0 0 0 - - -;
#X floatatom 1250 597 5 0 0 0 - - -;
#X floatatom 1301 598 5 0 0 0 - - -;
#X floatatom 1352 600 5 0 0 0 - - -;
#X obj 1175 456 random 3;
#X obj 1045 460 random 4;
#X obj 1040 505 select 0 1 2 3;
#X obj 1176 505 select 0 1 2;
#X obj 1107 793 * 12;
#X obj 1107 734 random 3;
#X obj 1107 760 - 1;
#X obj 1076 829 +;
#X msg 310 22 0;
#X msg 1219 716 60;
#X connect 0 0 28 0;
#X connect 1 0 2 0;
#X connect 3 0 108 0;
#X connect 3 0 110 0;
#X connect 4 0 12 0;
#X connect 5 0 6 0;
#X connect 5 0 6 1;
#X connect 7 0 5 1;
#X connect 8 0 79 1;
#X connect 9 0 10 0;
#X connect 9 0 11 0;
#X connect 10 0 56 0;
#X connect 11 0 82 0;
#X connect 12 0 78 0;
#X connect 13 0 26 0;
#X connect 14 0 41 0;
#X connect 15 0 42 0;
#X connect 16 0 43 0;
#X connect 17 0 44 0;
#X connect 18 0 45 0;
#X connect 19 0 46 0;
#X connect 20 0 47 0;
#X connect 21 0 23 1;
#X connect 22 0 23 0;
#X connect 23 0 24 0;
#X connect 25 0 27 0;
#X connect 26 0 84 0;
#X connect 28 0 9 0;
#X connect 29 0 13 0;
#X connect 29 0 32 0;
#X connect 29 1 14 0;
#X connect 29 1 33 0;
#X connect 29 2 15 0;
#X connect 29 2 34 0;
#X connect 29 3 16 0;
#X connect 29 3 35 0;
#X connect 30 0 17 0;
#X connect 30 1 18 0;
#X connect 30 2 19 0;
#X connect 30 3 20 0;
#X connect 31 0 36 0;
#X connect 31 1 37 0;
#X connect 31 2 38 0;
#X connect 31 3 39 0;
#X connect 32 0 48 0;
#X connect 33 0 49 0;
#X connect 34 0 50 0;
#X connect 35 0 51 0;
#X connect 36 0 52 0;
#X connect 37 0 53 0;
#X connect 38 0 54 0;
#X connect 39 0 55 0;
#X connect 41 0 84 0;
#X connect 42 0 84 0;
#X connect 43 0 84 0;
#X connect 44 0 84 0;
#X connect 45 0 84 0;
#X connect 46 0 84 0;
#X connect 47 0 84 0;
#X connect 48 0 84 0;
#X connect 49 0 84 0;
#X connect 50 0 84 0;
#X connect 51 0 84 0;
#X connect 52 0 84 0;
#X connect 53 0 84 0;
#X connect 54 0 84 0;
#X connect 55 0 84 0;
#X connect 56 0 9 1;
#X connect 57 0 112 0;
#X connect 58 0 68 5;
#X connect 59 0 68 4;
#X connect 60 0 68 3;
#X connect 61 0 68 1;
#X connect 62 0 68 2;
#X connect 68 0 79 0;
#X connect 69 0 61 0;
#X connect 70 0 69 0;
#X connect 70 0 80 0;
#X connect 70 0 76 0;
#X connect 70 0 81 0;
#X connect 70 0 75 0;
#X connect 71 0 68 0;
#X connect 72 0 73 0;
#X connect 72 0 77 0;
#X connect 73 0 71 0;
#X connect 74 0 71 0;
#X connect 75 0 60 0;
#X connect 76 0 59 0;
#X connect 77 0 74 0;
#X connect 78 0 72 0;
#X connect 78 1 8 0;
#X connect 79 0 5 0;
#X connect 80 0 62 0;
#X connect 81 0 58 0;
#X connect 82 0 83 0;
#X connect 82 1 14 0;
#X connect 82 2 15 0;
#X connect 82 3 16 0;
#X connect 82 4 17 0;
#X connect 82 5 18 0;
#X connect 82 6 19 0;
#X connect 82 7 20 0;
#X connect 82 8 32 0;
#X connect 82 9 33 0;
#X connect 82 10 34 0;
#X connect 82 11 35 0;
#X connect 82 12 36 0;
#X connect 82 13 37 0;
#X connect 82 14 38 0;
#X connect 82 15 39 0;
#X connect 83 0 3 0;
#X connect 84 0 104 0;
#X connect 84 1 103 0;
#X connect 85 0 30 0;
#X connect 86 0 31 0;
#X connect 87 0 29 0;
#X connect 88 0 92 0;
#X connect 89 0 88 0;
#X connect 90 0 89 0;
#X connect 92 0 91 0;
#X connect 92 0 91 1;
#X connect 93 0 92 1;
#X connect 94 0 95 0;
#X connect 95 0 3 1;
#X connect 95 1 96 0;
#X connect 95 2 97 0;
#X connect 95 3 98 0;
#X connect 95 4 99 0;
#X connect 95 5 100 0;
#X connect 95 6 101 0;
#X connect 95 7 102 0;
#X connect 96 0 3 0;
#X connect 97 0 3 0;
#X connect 98 0 3 0;
#X connect 99 0 3 0;
#X connect 100 0 3 0;
#X connect 101 0 3 0;
#X connect 102 0 3 0;
#X connect 103 0 106 0;
#X connect 104 0 105 0;
#X connect 105 0 96 0;
#X connect 105 1 97 0;
#X connect 105 2 98 0;
#X connect 105 3 99 0;
#X connect 106 0 100 0;
#X connect 106 1 101 0;
#X connect 106 2 102 0;
#X connect 107 0 110 1;
#X connect 108 0 109 0;
#X connect 109 0 107 0;
#X connect 110 0 4 0;
#X connect 111 0 90 0;
#X connect 112 0 3 1;
